<?xml version="1.0" encoding="utf-8"?>
<!-- Generator: Adobe Illustrator 27.0.0, SVG Export Plug-In . SVG Version: 6.00 Build 0)  -->
<svg version="1.1" id="Calque_1" xmlns="http://www.w3.org/2000/svg" xmlns:xlink="http://www.w3.org/1999/xlink" x="0px" y="0px"
	 viewBox="0 0 2300 2300" style="enable-background:new 0 0 2300 2300;" xml:space="preserve">
<style type="text/css">
	.st0{fill:#FB9B90;}
	.st1{fill:none;stroke:#171E34;stroke-width:22.76;}
	.st2{clip-path:url(#SVGID_00000165922163479764598270000011420982321019447189_);}
	.st3{fill:#1C1635;}
</style>
<g>
	<path class="st0" d="M24.84,587.29c0-310.66,251.84-562.5,562.5-562.5h1125c310.66,0,562.5,251.84,562.5,562.5v1125
		c0,310.66-251.84,562.5-562.5,562.5h-1125c-310.66,0-562.5-251.84-562.5-562.5V587.29z"/>
	<path class="st1" d="M36.09,587.29c0-304.45,246.8-551.25,551.25-551.25h1125c304.44,0,551.25,246.8,551.25,551.25v1125
		c0,304.44-246.81,551.25-551.25,551.25h-1125c-304.45,0-551.25-246.81-551.25-551.25V587.29z"/>
</g>
<g>
	<defs>
		<rect id="SVGID_1_" x="482.34" y="481.76" width="1320" height="1320"/>
	</defs>
	<clipPath id="SVGID_00000013891133164090766340000014707102656015784632_">
		<use xlink:href="#SVGID_1_"  style="overflow:visible;"/>
	</clipPath>
	<g style="clip-path:url(#SVGID_00000013891133164090766340000014707102656015784632_);">
		<path class="st3" d="M1314.52,620.1c0-18.16-14.72-32.89-32.88-32.89H933.27c-18.16,0-32.88,14.72-32.88,32.89v209.09
			c0,18.17,14.72,32.89,32.88,32.89h315.48v92.89l-315.48,315.59l-81.25-81.29c-6.89-6.89-16.53-10.36-26.18-9.51
			c-9.7,0.87-18.52,5.99-24.08,13.99l-313.54,450.91c-6.99,10.04-7.81,23.15-2.14,34c5.67,10.85,16.9,17.65,29.14,17.65h1254.14
			c0.04,0,0.07,0,0.09,0c18.16,0,32.88-14.72,32.88-32.88c0-7.82-2.72-15-7.28-20.65l-480.54-684.58V620.1z M966.16,796.3V652.99
			h282.59V796.3H966.16z M578.14,1630.54l255.16-366.97l76.71,76.75c6.17,6.16,14.54,9.63,23.26,9.63c8.72,0,17.09-3.47,23.26-9.63
			l320.69-320.8l428.89,611.02H578.14L578.14,1630.54z"/>
	</g>
</g>
</svg>
