<?xml version="1.0" encoding="utf-8"?>
<!-- Generator: Adobe Illustrator 27.0.0, SVG Export Plug-In . SVG Version: 6.00 Build 0)  -->
<svg version="1.1" id="Calque_1" xmlns="http://www.w3.org/2000/svg" xmlns:xlink="http://www.w3.org/1999/xlink" x="0px" y="0px"
	 viewBox="0 0 2300 2300" style="enable-background:new 0 0 2300 2300;" xml:space="preserve">
<style type="text/css">
	.st0{fill:#FB9B90;}
	.st1{fill:none;stroke:#171E34;stroke-width:20.4222;}
	.st2{fill:#1C1635;}
</style>
<g>
	<path class="st0" d="M24.84,587.29c0-310.66,251.84-562.5,562.5-562.5h1125c310.66,0,562.5,251.84,562.5,562.5v1125
		c0,310.66-251.84,562.5-562.5,562.5h-1125c-310.66,0-562.5-251.84-562.5-562.5V587.29z"/>
	<path class="st1" d="M36.09,587.29c0-304.45,246.8-551.25,551.25-551.25h1125c304.45,0,551.25,246.8,551.25,551.25v1125
		c0,304.45-246.8,551.25-551.25,551.25h-1125c-304.45,0-551.25-246.8-551.25-551.25V587.29z"/>
</g>
<path class="st2" d="M1058.26,748.53c24.63-30.75,69-32.4,95.76-4.97c26.76-27.43,71.14-25.78,95.76,4.97
	c21.66,27.04,16.94,66.86-7.25,91.66l-68.77,70.52c-10.82,11.1-28.66,11.1-39.48,0l-68.77-70.52
	C1041.33,815.39,1036.6,775.57,1058.26,748.53z M853.69,706.69l71.62,41.36c4.34,2.51,9.09,3.69,13.76,3.69
	c9.54,0,18.8-4.93,23.92-13.79c7.6-13.19,3.09-30.05-10.1-37.67l-71.63-41.36c-13.2-7.65-30.05-3.1-37.67,10.1
	C835.99,682.21,840.5,699.07,853.69,706.69z M1368.95,751.73c4.68,0,9.42-1.19,13.76-3.69l71.65-41.36
	c13.2-7.62,17.72-24.48,10.1-37.67c-7.65-13.19-24.53-17.72-37.67-10.1l-71.65,41.36c-13.2,7.62-17.72,24.48-10.1,37.67
	C1350.16,746.78,1359.42,751.73,1368.95,751.73z M1006.06,647.12c5.11,8.83,14.38,13.79,23.91,13.79c4.67,0,9.41-1.19,13.76-3.69
	c13.18-7.62,17.7-24.48,10.1-37.67l-13.79-23.89c-7.65-13.19-24.45-17.74-37.67-10.1c-13.18,7.62-17.71,24.48-10.1,37.67
	L1006.06,647.12z M878.29,820.67c-15.23,0-27.57,12.33-27.57,27.57c0,15.24,12.34,27.57,27.57,27.57h27.57
	c15.23,0,27.58-12.33,27.58-27.57c0-15.24-12.35-27.57-27.58-27.57H878.29z M1264.31,657.22c4.34,2.51,9.08,3.69,13.76,3.69
	c9.54,0,18.8-4.96,23.92-13.79l13.78-23.89c7.62-13.19,3.1-30.05-10.1-37.67c-13.16-7.62-30.05-3.09-37.67,10.1l-13.79,23.89
	C1246.59,632.74,1251.12,649.6,1264.31,657.22z M1429.75,820.67h-27.57c-15.24,0-27.57,12.33-27.57,27.57
	c0,15.24,12.33,27.57,27.57,27.57h27.57c15.24,0,27.58-12.33,27.58-27.57C1457.33,833,1444.99,820.67,1429.75,820.67z
	 M1154.02,627.65c15.23,0,27.57-12.33,27.57-27.57v-82.72c0-15.24-12.34-27.57-27.57-27.57c-15.23,0-27.57,12.33-27.57,27.57v82.72
	C1126.45,615.32,1138.79,627.65,1154.02,627.65z M1347.03,1123.97c0,106.42-86.59,193.01-193.01,193.01
	c-106.41,0-193.01-86.59-193.01-193.01c0-106.41,86.6-193.01,193.01-193.01C1260.44,930.96,1347.03,1017.56,1347.03,1123.97z
	 M1236.74,1123.97c0-45.68-37.03-82.72-82.72-82.72c-45.68,0-82.72,37.04-82.72,82.72c0,45.69,37.04,82.72,82.72,82.72
	C1199.71,1206.69,1236.74,1169.66,1236.74,1123.97z M1754.29,1310.64c-15.72-14.06-35.57-21.23-55.42-21.23
	c-21.23,0-42.47,8.27-58.46,24.27l-301.88,301.88c-20.68,20.68-48.74,32.3-77.99,32.3h-327.1c-30.34,0-55.15-24.81-55.15-55.14
	h358.45c46.6,0,82.72-37.5,82.72-82.72c0-47.71-39.43-82.72-82.72-82.72h-202.39c-90.44,0-84.1-82.72-174.26-82.72H703.48
	c-29.31,0-57.41,11.64-78.14,32.36l-89.35,89.35c-10.34,10.34-16.15,24.37-16.15,38.99v115.03c0,112.02,83.39,204.46,191.51,218.69
	c17.39,2.28,35.02-4.02,47.2-16.62c36.69-37.98,61.45-64.21,110.36-64.21h515.07c29.31,0,57.42-11.64,78.14-32.36l291.34-291.34
	C1787.38,1400.53,1789.58,1342.9,1754.29,1310.64z"/>
</svg>
