<?xml version="1.0" encoding="utf-8"?>
<!-- Generator: Adobe Illustrator 27.0.0, SVG Export Plug-In . SVG Version: 6.00 Build 0)  -->
<svg version="1.1" id="Calque_1" xmlns="http://www.w3.org/2000/svg" xmlns:xlink="http://www.w3.org/1999/xlink" x="0px" y="0px"
	 viewBox="0 0 2300 2300" style="enable-background:new 0 0 2300 2300;" xml:space="preserve">
<style type="text/css">
	.st0{fill:#FB9B90;}
	.st1{fill:none;stroke:#171E34;stroke-width:19.5522;}
	.st2{fill:none;stroke:#1C1635;stroke-width:81.4674;stroke-linecap:round;stroke-linejoin:round;}
</style>
<g>
	<path class="st0" d="M24.84,587.29c0-310.66,251.84-562.5,562.5-562.5h1125c310.66,0,562.5,251.84,562.5,562.5v1125
		c0,310.66-251.84,562.5-562.5,562.5h-1125c-310.66,0-562.5-251.84-562.5-562.5V587.29z"/>
	<path class="st1" d="M36.09,587.29c0-304.45,246.8-551.25,551.25-551.25h1125c304.45,0,551.25,246.8,551.25,551.25v1125
		c0,304.45-246.8,551.25-551.25,551.25h-1125c-304.45,0-551.25-246.8-551.25-551.25V587.29z"/>
</g>
<path class="st2" d="M1149.84,884.88l-66.87,116.25c-15,25.63-2.5,46.88,26.87,46.88h79.38c30,0,41.87,21.25,26.87,46.87
	l-66.25,116.25"/>
<path class="st2" d="M918.6,1519.25v-72.5c-143.75-86.87-261.88-256.25-261.88-436.24c0-309.38,284.38-551.87,605.63-481.87
	c141.25,31.25,265,125,329.37,254.37c130.63,262.49-6.87,541.24-208.75,663.12v72.5c0,18.12,6.88,60-60,60H978.6
	C909.85,1579.25,918.6,1552.38,918.6,1519.25z"/>
<path class="st2" d="M931.1,1766.76c143.12-40.62,294.37-40.62,437.5,0"/>
</svg>
