<?xml version="1.0" encoding="utf-8"?>
<!-- Generator: Adobe Illustrator 27.0.0, SVG Export Plug-In . SVG Version: 6.00 Build 0)  -->
<svg version="1.1" id="Calque_1" xmlns="http://www.w3.org/2000/svg" xmlns:xlink="http://www.w3.org/1999/xlink" x="0px" y="0px"
	 viewBox="0 0 1920 1080" style="enable-background:new 0 0 1920 1080;" xml:space="preserve">
<style type="text/css">
	.st0{fill:#1C1635;}
	.st1{fill:#3F3D56;}
	.st2{fill:#FFFFFF;}
	.st3{fill:#FFB8B8;}
	.st4{fill:#2F2E41;}
	.st5{fill:#5B112C;}
</style>
<path class="st0" d="M1554.38,861.18H365.35v99.21h1189.03V861.18z"/>
<path class="st1" d="M1552.32,861.18H365.35v-3.05h1187.51L1552.32,861.18z"/>
<path class="st2" d="M628.85,462.74h0.16l2.8,160.63h-5.91L628.85,462.74z"/>
<path class="st2" d="M639.17,550.24l-1.3-2.48l-9.37,4.93l1.31,2.48L639.17,550.24z"/>
<path class="st2" d="M617.56,296.83l14.55-11.64c-11.31-1.25-15.95,4.92-17.85,9.8c-8.83-3.67-18.45,1.14-18.45,1.14l29.12,10.57
	C623.47,302.78,620.91,299.35,617.56,296.83z"/>
<path class="st0" d="M1354.1,428.09v237.43H736.67V428.09c0-78.79,30.13-154.6,84.21-211.9s128.03-91.76,206.69-96.3
	c5.9-0.34,11.84-0.51,17.82-0.51c3.41,0,6.81,0.05,10.19,0.18c78.33,2.48,152.77,34.76,208.11,90.25c1.66,1.67,3.31,3.35,4.95,5.05
	C1323.51,272.27,1354.12,348.65,1354.1,428.09z"/>
<path class="st2" d="M1055.57,119.55v545.97h-28.01V119.88c5.89-0.34,11.83-0.51,17.82-0.51
	C1048.8,119.37,1052.2,119.42,1055.57,119.55z"/>
<path class="st2" d="M1292.37,242.86H798.4c7.35-9.8,15.28-19.15,23.74-28.01h446.49C1277.09,223.71,1285.02,233.06,1292.37,242.86z
	"/>
<path class="st2" d="M1307.11,323.06h-218.82v370.46h218.82V323.06z"/>
<path class="st0" d="M1164.6,385.65h-33.1v33.1h33.1V385.65z"/>
<path class="st0" d="M1217.93,385.65h-33.1v33.1h33.1V385.65z"/>
<path class="st0" d="M1271.25,385.65h-33.1v33.1h33.1V385.65z"/>
<path class="st0" d="M1165.52,461.04h-33.1v33.1h33.1V461.04z"/>
<path class="st0" d="M1218.85,461.04h-33.1v33.1h33.1V461.04z"/>
<path class="st0" d="M1272.17,461.04h-33.1v33.1h33.1V461.04z"/>
<path class="st0" d="M1166.44,536.44h-33.1v33.1h33.1V536.44z"/>
<path class="st0" d="M1219.77,536.44h-33.1v33.1h33.1V536.44z"/>
<path class="st0" d="M1273.09,536.44H1240v33.1h33.1V536.44z"/>
<path class="st0" d="M1167.36,611.83h-33.1v33.1h33.1V611.83z"/>
<path class="st0" d="M1220.69,611.83h-33.1v33.1h33.1V611.83z"/>
<path class="st0" d="M1274.01,611.83h-33.1v33.1h33.1V611.83z"/>
<path class="st2" d="M810.06,590.19c25.2,0,45.62-20.42,45.62-45.62c0-25.19-20.42-45.62-45.62-45.62
	c-25.2,0-45.62,20.43-45.62,45.62C764.44,569.76,784.87,590.19,810.06,590.19z"/>
<path class="st2" d="M944.19,546.6c38.32,0,69.38-31.06,69.38-69.38c0-38.31-31.06-69.37-69.38-69.37
	c-38.31,0-69.37,31.06-69.37,69.37C874.81,515.54,905.87,546.6,944.19,546.6z"/>
<path class="st2" d="M944.38,477.22h0.19L948,673.91h-7.24L944.38,477.22z"/>
<path class="st2" d="M957.01,584.36l-1.6-3.04l-11.47,6.04l1.6,3.04L957.01,584.36z"/>
<path class="st2" d="M924.59,334.59l11.72-9.37c-9.1-1.01-12.84,3.96-14.38,7.89c-7.11-2.95-14.86,0.92-14.86,0.92l23.45,8.51
	C929.34,339.38,927.28,336.62,924.59,334.59z"/>
<path class="st2" d="M877.48,407.16l11.72-9.37c-9.1-1-12.84,3.96-14.38,7.89c-7.11-2.95-14.86,0.92-14.86,0.92l23.45,8.51
	C882.24,411.94,880.18,409.19,877.48,407.16z"/>
<path class="st0" d="M1386.56,637.51H704.21v56.02h682.36V637.51z"/>
<path class="st3" d="M592.48,915.87l11.24,1.32c8.88,5.35,19.3,7.37,30.84,6.96c1.61-0.05,3.18-0.52,4.55-1.36
	c1.37-0.84,2.5-2.03,3.28-3.44c0.67-1.24,1.05-2.62,1.1-4.03c0.05-1.41-0.22-2.81-0.8-4.1c-0.58-1.29-1.45-2.42-2.54-3.32
	c-1.09-0.9-2.37-1.53-3.74-1.85l-8.54-1.99l-20.61-20.15l-12.43-22.5l-18.06,2.07l-3.76,28.58c-0.48,5.72,1.29,11.4,4.92,15.84
	C581.57,912.35,586.78,915.2,592.48,915.87z"/>
<path class="st3" d="M767.51,901.42l11.02,2.59c8.21,6.33,18.33,9.52,29.84,10.42c1.61,0.14,3.22-0.15,4.68-0.83
	s2.72-1.73,3.65-3.05c0.81-1.15,1.34-2.48,1.55-3.88c0.21-1.39,0.1-2.82-0.33-4.16c-0.43-1.34-1.16-2.57-2.14-3.58
	c-0.98-1.02-2.18-1.79-3.51-2.26l-8.26-2.95l-18.17-22.37l-9.79-23.77h-18.17l-6.99,27.96c-1.12,5.63-0.02,11.47,3.08,16.3
	C757.07,896.67,761.93,900.1,767.51,901.42z"/>
<path class="st4" d="M776.54,849.17l-20.55,3.16l-32.41-163.64l-56.13-95.65L599.47,871.3l-25.3,4.74
	c2.84-156.7-11.01-353.98,20.55-377.87l137.55,15.81l60.08,161.27L776.54,849.17z"/>
<path class="st3" d="M676.94,254.69c-26.2,0-47.43-21.24-47.43-47.43c0-26.2,21.24-47.43,47.43-47.43
	c26.2,0,47.43,21.24,47.43,47.43C724.37,233.46,703.13,254.69,676.94,254.69z"/>
<path class="st3" d="M610.53,279.99l56.92,9.49l14.23-50.59l-41.11-12.65L610.53,279.99z"/>
<path class="st5" d="M586.82,504.5l151.78,14.23c-12.17-42.31-23.32-84.47-14.23-126.48c11.54-37.51,0.4-59.81-30.04-77.47
	l-20.55-45.85l-55.34-6.32c-14.65,23.56-20.65,51.49-16.95,78.99C609.37,401.39,607.24,456.88,586.82,504.5z"/>
<path class="st4" d="M678,151.24c15.83,3.62,33.85,8.74,34.86,13.5c16.28,4.1,28.57,13.93,31.08,28.92
	c0.21,1.29,0.13,2.62-0.22,3.88c-0.36,1.26-0.99,2.43-1.85,3.42c-0.86,0.99-1.92,1.79-3.12,2.32c-1.2,0.54-2.5,0.8-3.81,0.78
	c-8.85-0.11-22.15-0.96-30.93-4.63c-25.5,16.43-29.78,59.17-18.64,88.26l-17.52-1.61l-18.13-53.07l-4.63,50.99l-39.99-5.29
	l5.15-65.02c1.58-15.32,6.8-30.05,15.21-42.96c0.87-1.3,1.83-2.53,2.86-3.71c6.08-6.87,13.92-11.97,22.66-14.75
	C659.73,149.5,669.07,149.15,678,151.24z"/>
<path class="st3" d="M778.45,932.18c0.09,0.77,0.01,1.56-0.23,2.3c-0.23,0.74-0.62,1.43-1.14,2.01c-0.52,0.58-1.15,1.05-1.86,1.37
	c-0.71,0.33-1.48,0.5-2.25,0.51l-17.79,0.18c-0.96-0.07-1.85-0.49-2.51-1.2c-0.66-0.7-1.02-1.62-1.02-2.58
	c0-0.76,0.23-1.5,0.65-2.13c0.42-0.63,1.03-1.11,1.73-1.4l5.25-2.1l7.63-10.68h6.11c3,4,4.87,8.72,5.42,13.69L778.45,932.18z"/>
<path class="st3" d="M821.02,932.18c-0.09,0.77-0.01,1.56,0.23,2.3c0.24,0.74,0.62,1.43,1.14,2.01c0.52,0.58,1.15,1.05,1.86,1.37
	c0.71,0.33,1.48,0.5,2.26,0.51l17.79,0.18c0.96-0.07,1.85-0.49,2.51-1.2c0.65-0.7,1.02-1.62,1.02-2.58c0-0.76-0.23-1.5-0.65-2.13
	c-0.43-0.63-1.03-1.11-1.73-1.4l-5.25-2.1l-7.63-10.68h-6.11c-3,4-4.87,8.72-5.42,13.69L821.02,932.18z"/>
<path class="st1" d="M834.07,918.46h-9.16l-32.05-138.9l-16.79,140.42h-10.68l-14.5-180.87l74.03-0.76L834.07,918.46z"/>
<path class="st3" d="M875.29,663.56h-12.21v-29L860.3,629c-0.56-1.11-0.84-2.34-0.84-3.59c0.01-1.25,0.31-2.47,0.88-3.58
	c0.57-1.11,1.4-2.06,2.41-2.79c1.01-0.73,2.18-1.2,3.41-1.39c1.13-0.17,2.28-0.1,3.38,0.21c1.1,0.31,2.11,0.86,2.98,1.6
	c0.87,0.74,1.56,1.66,2.04,2.7c0.48,1.04,0.72,2.16,0.72,3.3V663.56z"/>
<path class="st3" d="M802.78,591.82c-15.6,0-28.24-12.64-28.24-28.24c0-15.6,12.64-28.24,28.24-28.24
	c15.59,0,28.24,12.64,28.24,28.24C831.02,579.18,818.38,591.82,802.78,591.82z"/>
<path class="st3" d="M814.23,611.66h-29v-33.58h29V611.66z"/>
<path class="st5" d="M827.97,742.93c-25.67,15.84-52.81,14.29-80.9,1.53l6.1-141.95l32.05-1.53l33.58,4.58l16.79,13.74
	L827.97,742.93z"/>
<path class="st5" d="M858.5,692.56l-33.58-25.95l10.68-47.32l19.84,36.63l6.1-6.11l18.32,13.74L858.5,692.56z"/>
<path class="st3" d="M709.44,604.94l10.68,5.92l14.06-25.37l5.12-3.51c1.03-0.7,1.88-1.64,2.47-2.74c0.6-1.09,0.93-2.32,0.96-3.56
	c0.04-1.25-0.22-2.48-0.76-3.61s-1.32-2.11-2.31-2.88c-0.9-0.7-1.94-1.19-3.06-1.45c-1.11-0.26-2.26-0.27-3.38-0.04
	c-1.12,0.23-2.17,0.7-3.09,1.37c-0.92,0.68-1.68,1.54-2.23,2.54l-4.41,7.95L709.44,604.94z"/>
<path class="st5" d="M769.2,647.53l-40.53-21.51l-21.29-11.3l-3.05-18.32l13.74-13.74l16.79,10.68l-1.53,12.21l19.84-3.05
	L769.2,647.53z"/>
<path class="st4" d="M796.68,586.48c-18.54,0-33.58-15.03-33.58-33.58c0-18.55,15.04-33.58,33.58-33.58
	c18.55,0,33.58,15.03,33.58,33.58C830.26,571.44,815.22,586.48,796.68,586.48z"/>
<path class="st4" d="M778.36,530c-8.43,0-15.26-6.83-15.26-15.26c0-8.43,6.83-15.26,15.26-15.26s15.26,6.83,15.26,15.26
	C793.63,523.17,786.79,530,778.36,530z"/>
<path class="st4" d="M779.1,527.5c-3.03,1.58-6.49,2.1-9.85,1.47c-3.36-0.62-6.41-2.35-8.66-4.92c-2.26-2.56-3.59-5.8-3.78-9.21
	s0.76-6.78,2.71-9.59c-1.77,1.33-3.22,3.02-4.27,4.97c-1.04,1.95-1.66,4.09-1.79,6.3c-0.13,2.2,0.21,4.41,1.02,6.47
	c0.8,2.06,2.04,3.92,3.63,5.45c1.59,1.53,3.5,2.7,5.58,3.42c2.09,0.72,4.3,0.98,6.5,0.76s4.32-0.91,6.22-2.03
	c1.9-1.12,3.54-2.64,4.8-4.45C780.55,526.66,779.84,527.11,779.1,527.5z"/>
<path class="st3" d="M684.84,551.93l-1.05,36.71c-0.15,5.06,1.63,9.99,4.98,13.79c3.34,3.8,8,6.19,13.04,6.7
	c3.23,0.32,6.48-0.14,9.49-1.36c3.01-1.21,5.67-3.14,7.77-5.61c2.1-2.47,3.56-5.42,4.27-8.58c0.71-3.16,0.63-6.45-0.21-9.58
	l-8.24-30.47l-23.72-129.65l1.58-75.89l-50.59-1.58l9.49,85.38L684.84,551.93z"/>
<path class="st5" d="M638.99,354.3c18.33-6.98,38.59-6.98,56.92,0l-3.16-63.24c0-6.71-2.67-13.14-7.41-17.89
	c-4.74-4.74-11.18-7.41-17.89-7.41s-13.14,2.67-17.89,7.41c-4.74,4.74-7.41,11.18-7.41,17.89L638.99,354.3z"/>
<path class="st0" d="M1502.12,781.39c0,0-136.62-62.89-88.63-106.5C1461.49,631.27,1502.12,781.39,1502.12,781.39z"/>
<path class="st0" d="M1499.74,795.44c0,0-62.8-206.32,29.67-196.45S1499.74,795.44,1499.74,795.44z"/>
<path class="st0" d="M1453.95,777.76l2.64,34.51l0.04,0.6c0,5.39,0.27,10.78,0.82,16.14c3.57,35.2,18.95,51.25,36.92,51.25
	c17.96,0,32.67-16.04,36.24-51.25c0.55-5.36,0.82-10.75,0.82-16.14l0.02-0.48l0.01-0.11l2.65-34.51H1453.95z"/>
<path class="st2" d="M1531.46,812.28l-0.01,0.11l-0.02,0.48c0,5.39-0.27,10.78-0.81,16.14h-73.17c-0.55-5.36-0.82-10.75-0.82-16.14
	l-0.04-0.6H1531.46z"/>
<path class="st0" d="M435.2,784.44c0,0-136.62-62.89-88.62-106.51C394.57,634.32,435.2,784.44,435.2,784.44z"/>
<path class="st0" d="M432.82,798.49c0,0-62.79-206.32,29.67-196.45C554.96,611.91,432.82,798.49,432.82,798.49z"/>
<path class="st0" d="M387.04,780.81l2.64,34.51l0.04,0.6c0,5.39,0.27,10.78,0.82,16.14c3.58,35.2,18.95,51.25,36.92,51.25
	c17.97,0,32.67-16.04,36.25-51.25c0.55-5.36,0.82-10.75,0.82-16.14l0.02-0.48l0.01-0.11l2.65-34.51H387.04z"/>
<path class="st2" d="M464.54,815.33l-0.01,0.11l-0.02,0.48c0,5.39-0.27,10.78-0.82,16.14h-73.17c-0.55-5.36-0.82-10.75-0.82-16.14
	l-0.04-0.6H464.54z"/>
</svg>
