<?xml version="1.0" encoding="utf-8"?>
<!-- Generator: Adobe Illustrator 27.0.0, SVG Export Plug-In . SVG Version: 6.00 Build 0)  -->
<svg version="1.1" id="Calque_1" xmlns="http://www.w3.org/2000/svg" xmlns:xlink="http://www.w3.org/1999/xlink" x="0px" y="0px"
	 viewBox="0 0 2300 2300" style="enable-background:new 0 0 2300 2300;" xml:space="preserve">
<style type="text/css">
	.st0{fill:#F2F2F2;}
	.st1{fill:#1C1635;fill-opacity:0.24;}
	.st2{fill:#FFFFFF;}
	.st3{fill:#FFB6B6;}
	.st4{fill:#E6E6E6;}
	.st5{fill:#3F3D56;}
	.st6{fill:#E4E4E4;}
	.st7{fill:#1C1635;}
	.st8{fill:#2F2E41;}
	.st9{fill:#FB9B90;}
	.st10{fill:#FFB8B8;}
	.st11{fill:#5B112C;}
	.st12{fill:#9E616A;}
</style>
<path class="st0" d="M544.6,1389.85c-6.65,0-13.31,0.28-19.81,0.83l-0.95,0.08c-43.15,3.82-74.71,25.95-73.42,51.48l0.25,4.62
	c0.17,2.92,0.34,6.06,0.49,9.54c0.08,1.72,2.42,3.04,5.34,3.04h1061.42c74.83-0.45,149.4-1.03,221.61-1.7
	c13.54,0.03,27.07-0.67,40.54-2.1c20.07-2.38,34-7.08,42.58-14.39h0.01c10.68-9.06,11.01-20.48,10.37-33.38
	c-1.32-26.04-2.62-53.4-3.92-80.67c-1.15-24.04-2.3-48.01-3.44-70.96c-0.71-13.62-2.29-25.64-14.42-34.83
	c-13.14-9.94-37.12-14.97-71.26-14.97c-0.41,0-0.82,0-1.24,0c-107,0.38-213.01,37.17-263.81,91.55
	c-5.85,6.26-11.3,12.96-16.57,19.45c-7.79,9.58-15.84,19.48-25.45,28.34c-5.2,4.86-10.83,9.25-16.81,13.1
	c-0.41,0.29-0.89,0.59-1.38,0.88c-1.14,0.74-2.34,1.46-3.5,2.1c-6.81,3.94-13.99,7.2-21.44,9.75l-0.75,0.25
	c-0.57,0.2-1.18,0.41-1.79,0.59c-4.3,1.38-8.77,2.57-13.24,3.54c-19.36,4.27-41.38,5.29-65.43,3.04
	c-22.09-2.12-43.9-6.57-65.06-13.26c-22.28-7.04-43.13-15.82-63.29-24.31c-8.86-3.73-18.02-7.59-27.17-11.24
	c-1.72-0.69-3.41-1.36-5.13-2.03c-11.18-4.36-21.31-7.95-30.97-11c-23.95-7.57-48.74-12.16-73.81-13.67
	c-26.61-1.46-50.06,1.29-69.68,8.15c-5.41,1.88-10.68,4.15-15.76,6.79c-23.24,12.07-37.57,29.88-51.42,47.11
	c-17.23,21.43-35.06,43.58-70.25,55.07c-40.61,13.27-99.88,7.76-141.82-1.83c-13.18-3.01-26.35-6.48-39.09-9.83
	c-5.14-1.35-10.29-2.7-15.44-4.04c-10.12-2.61-18.41-4.61-26.07-6.31l-2.42-0.54c-1.35-0.29-2.7-0.59-4.07-0.86
	c-9.1-1.91-17.58-3.42-25.93-4.6l-1.98-0.29c-3.96-0.52-7.66-0.96-11.29-1.32l-1.45-0.14
	C559.34,1390.19,551.97,1389.85,544.6,1389.85z"/>
<path class="st1" d="M1642.16,1418.35c29.87-26.91,74.29-40.45,111.55-25.35c-38.22,21.22-67.7,55.28-83.24,96.15
	c-5.93,15.78-10.88,33.96-25.47,42.41c-9.08,5.26-20.38,5.52-30.56,2.98c-10.18-2.54-19.51-7.63-28.71-12.66l-2.62-0.06
	C1594.87,1483.35,1612.3,1445.26,1642.16,1418.35z"/>
<path class="st2" d="M1753.51,1393.81c-33.01,4.27-63.83,18.82-88.09,41.6c-5.31,4.81-9.82,10.43-13.38,16.65
	c-3.28,6.17-4.84,13.1-4.52,20.08c0.16,6.51,1.08,13.15-0.35,19.59c-0.78,3.28-2.24,6.37-4.29,9.04c-2.05,2.68-4.65,4.89-7.62,6.5
	c-7.29,4.19-15.65,5.51-23.88,6.52c-9.13,1.12-18.63,2.14-26.54,7.26c-0.95,0.62-1.86-0.9-0.9-1.52
	c13.75-8.91,31.15-5.67,45.94-11.62c6.9-2.78,13-7.65,15.16-15.01c1.89-6.44,0.95-13.29,0.73-19.88c-0.41-6.8,0.86-13.6,3.69-19.8
	c3.23-6.38,7.52-12.16,12.7-17.1c11.46-11.3,24.64-20.73,39.03-27.95c16.39-8.32,34.07-13.78,52.3-16.14
	C1754.62,1391.89,1754.63,1393.67,1753.51,1393.81z"/>
<path class="st2" d="M1672.8,1427.61c-3.26-4.59-4.8-10.19-4.32-15.8s2.94-10.87,6.94-14.84c0.82-0.8,2.1,0.42,1.28,1.23
	c-3.73,3.69-6.02,8.59-6.46,13.82c-0.43,5.23,1.02,10.44,4.09,14.7C1674.99,1427.63,1673.47,1428.54,1672.8,1427.61z"/>
<path class="st2" d="M1647,1468.84c11.34,2.01,23.02-0.33,32.72-6.55c0.96-0.62,1.86,0.91,0.9,1.52
	c-10.09,6.46-22.26,8.86-34.05,6.75C1645.44,1470.36,1645.88,1468.64,1647,1468.84z"/>
<path class="st2" d="M1717.72,1402.2c0.9,2.04,2.28,3.82,4.04,5.2c1.75,1.37,3.82,2.28,6.02,2.66c1.12,0.19,0.68,1.91-0.44,1.72
	c-2.42-0.42-4.7-1.44-6.64-2.95c-1.95-1.51-3.49-3.47-4.5-5.72c-0.11-0.2-0.14-0.44-0.09-0.67c0.06-0.22,0.2-0.42,0.4-0.55
	c0.2-0.12,0.44-0.15,0.67-0.1C1717.4,1401.85,1717.6,1402,1717.72,1402.2z"/>
<path class="st1" d="M1794.75,1522.78c-0.71-0.1-1.42-0.19-2.13-0.28c-9.51-1.26-19.1-1.75-28.69-1.46
	c-0.74,0.01-1.49,0.03-2.23,0.07c-23.09,0.95-45.8,6.18-66.98,15.42c-8.42,3.68-16.55,8-24.32,12.92
	c-10.73,6.79-21.82,15.01-33.82,17.78c-1.24,0.3-2.51,0.53-3.79,0.68l-49.55-42.91c-0.06-0.15-0.14-0.3-0.2-0.45l-2.06-1.62
	c0.39-0.28,0.79-0.57,1.17-0.85c0.22-0.16,0.46-0.32,0.68-0.48c0.15-0.11,0.3-0.21,0.43-0.32c0.05-0.04,0.1-0.07,0.14-0.09
	c0.13-0.1,0.27-0.19,0.39-0.28c2.25-1.59,4.51-3.17,6.79-4.74c0.01-0.01,0.01-0.01,0.03-0.01c17.26-12.1,35.89-22.12,55.51-29.84
	c0.59-0.22,1.18-0.46,1.8-0.66c8.83-3.29,17.92-5.84,27.17-7.65c5.07-0.97,10.18-1.69,15.32-2.14c13.29-1.15,26.67-0.2,39.67,2.81
	c25.89,6.01,49.58,20.22,63.61,42.4C1794.05,1521.65,1794.4,1522.2,1794.75,1522.78z"/>
<path class="st2" d="M1794.09,1523.32c-28.92-16.47-62.29-23.4-95.37-19.82c-7.14,0.64-14.13,2.41-20.71,5.23
	c-6.33,2.96-11.75,7.55-15.7,13.31c-3.79,5.3-7.06,11.15-12.07,15.43c-2.6,2.15-5.62,3.73-8.87,4.64c-3.25,0.9-6.66,1.11-10,0.6
	c-8.34-1.04-15.82-5.02-22.99-9.17c-7.96-4.6-16.16-9.51-25.56-10.18c-1.14-0.08-0.94-1.84,0.19-1.76
	c16.35,1.17,28.29,14.23,43.68,18.39c7.18,1.94,14.98,1.73,21.14-2.85c5.39-4,8.76-10.04,12.55-15.43
	c3.77-5.67,8.88-10.34,14.87-13.59c6.42-3.15,13.33-5.18,20.43-6.01c15.96-2.12,32.16-1.72,47.99,1.19
	c18.1,3.22,35.5,9.51,51.48,18.6C1796.13,1522.45,1795.07,1523.87,1794.09,1523.32z"/>
<path class="st2" d="M1709.3,1501.72c0.16-5.63,2.31-11.03,6.07-15.22c3.76-4.19,8.89-6.91,14.48-7.67c1.13-0.15,1.41,1.6,0.28,1.75
	c-5.2,0.7-9.98,3.23-13.48,7.14c-3.49,3.91-5.47,8.94-5.59,14.19C1711.04,1503.05,1709.28,1502.85,1709.3,1501.72z"/>
<path class="st2" d="M1663.88,1519.1c7.84,8.43,18.58,13.6,30.06,14.47c1.14,0.08,0.95,1.85-0.19,1.76
	c-11.95-0.93-23.11-6.32-31.25-15.12C1661.72,1519.37,1663.11,1518.27,1663.88,1519.1z"/>
<path class="st2" d="M1760.47,1508.47c-0.51,2.17-0.48,4.43,0.1,6.58c0.57,2.15,1.67,4.12,3.2,5.74c0.79,0.83-0.6,1.93-1.38,1.11
	c-1.68-1.8-2.89-3.98-3.53-6.35c-0.65-2.38-0.7-4.87-0.15-7.27c0.03-0.23,0.15-0.44,0.33-0.59c0.18-0.15,0.41-0.22,0.64-0.2
	c0.24,0.03,0.45,0.14,0.6,0.33C1760.42,1508,1760.49,1508.23,1760.47,1508.47z"/>
<path class="st1" d="M860.33,1445.11c24.46-37.09,68.2-63.93,112.26-58.15c-34.98,33.33-57.04,77.96-62.28,125.99
	c-1.95,18.53-2.2,39.35-15.45,52.44c-8.25,8.15-20.26,11.57-31.85,11.68c-11.59,0.12-22.99-2.73-34.23-5.56l-2.82,0.66
	C827.83,1527.8,835.87,1482.21,860.33,1445.11z"/>
<path class="st2" d="M972.59,1387.9c-34.11,13.74-63.03,37.88-82.63,68.99c-4.34,6.62-7.61,13.89-9.69,21.53
	c-1.78,7.51-1.52,15.36,0.75,22.73c1.98,6.92,4.81,13.77,5.08,21.05c0.08,3.73-0.63,7.43-2.08,10.87c-1.45,3.44-3.61,6.53-6.34,9.07
	c-6.63,6.51-15.21,10.25-23.73,13.62c-9.46,3.74-19.33,7.47-26.36,15.15c-0.85,0.93-2.24-0.45-1.39-1.37
	c12.23-13.36,31.74-14.73,45.9-25.2c6.61-4.89,11.78-11.8,12.05-20.27c0.23-7.41-2.68-14.48-4.75-21.47
	c-2.33-7.16-2.86-14.78-1.56-22.2c1.68-7.72,4.67-15.1,8.82-21.82c9.12-15.28,20.59-29.03,33.98-40.75
	c15.21-13.46,32.61-24.22,51.44-31.81C973.24,1385.54,973.75,1387.43,972.59,1387.9z"/>
<path class="st2" d="M895.68,1446.5c-4.77-4-7.97-9.56-9.02-15.7c-1.05-6.14,0.12-12.45,3.29-17.8c0.65-1.08,2.36-0.13,1.71,0.95
	c-2.97,4.98-4.05,10.86-3.06,16.58c0.99,5.71,3.99,10.89,8.45,14.58C898.02,1445.91,896.64,1447.3,895.68,1446.5z"/>
<path class="st2" d="M879.55,1497.77c12.69-1.01,24.53-6.76,33.17-16.11c0.85-0.93,2.25,0.45,1.39,1.38
	c-9.01,9.71-21.34,15.67-34.55,16.69C878.31,1499.83,878.3,1497.87,879.55,1497.77z"/>
<path class="st2" d="M936.65,1406.82c1.52,1.93,3.5,3.45,5.76,4.43c2.26,0.98,4.72,1.38,7.18,1.17c1.26-0.11,1.26,1.85,0.02,1.96
	c-2.71,0.22-5.43-0.23-7.93-1.3c-2.5-1.07-4.69-2.74-6.4-4.86c-0.18-0.19-0.28-0.43-0.28-0.69c0-0.26,0.09-0.51,0.27-0.69
	c0.18-0.18,0.43-0.29,0.69-0.29C936.21,1406.54,936.46,1406.64,936.65,1406.82z"/>
<path class="st1" d="M1052.58,1514.36c-0.78,0.09-1.56,0.19-2.36,0.29c-10.52,1.3-20.92,3.44-31.09,6.42
	c-0.79,0.22-1.59,0.45-2.37,0.69c-24.43,7.44-47.26,19.35-67.34,35.12c-7.98,6.28-15.48,13.17-22.42,20.59
	c-9.59,10.25-19.16,22.13-31.22,28.43c-1.25,0.67-2.54,1.26-3.86,1.78l-64.93-32.1c-0.11-0.15-0.23-0.28-0.34-0.43l-2.65-1.16
	c0.33-0.41,0.68-0.82,1.02-1.23c0.19-0.24,0.4-0.47,0.59-0.7c0.13-0.16,0.27-0.31,0.38-0.46c0.04-0.05,0.09-0.1,0.12-0.14
	c0.11-0.15,0.23-0.27,0.33-0.41c1.96-2.33,3.95-4.65,5.95-6.96c0.01-0.02,0.01-0.02,0.03-0.02c15.3-17.56,32.2-34,51.07-47.35
	c0.57-0.4,1.14-0.82,1.74-1.21c8.53-5.97,17.54-11.23,26.94-15.74c5.15-2.45,10.42-4.64,15.79-6.55c13.89-4.93,28.47-7.63,43.2-8.03
	c29.37-0.78,58.66,7.84,79.84,27.65C1051.52,1513.34,1052.04,1513.84,1052.58,1514.36z"/>
<path class="st2" d="M1052.02,1515.11c-35.51-9.57-73.13-7.7-107.52,5.34c-7.45,2.67-14.44,6.51-20.7,11.36
	c-5.94,4.92-10.46,11.34-13.09,18.6c-2.58,6.72-4.44,13.89-8.61,19.86c-2.18,3.03-4.97,5.56-8.2,7.43
	c-3.23,1.87-6.81,3.04-10.52,3.43c-9.22,1.21-18.32-0.97-27.14-3.41c-9.8-2.71-19.94-5.68-30.17-3.78
	c-1.24,0.23-1.52-1.71-0.29-1.94c17.81-3.3,34.21,7.35,51.83,7.51c8.22,0.08,16.51-2.32,21.82-8.94c4.65-5.78,6.57-13.17,9.13-20
	c2.45-7.12,6.61-13.53,12.12-18.67c5.99-5.15,12.82-9.25,20.18-12.11c16.48-6.71,33.91-10.78,51.66-12.08
	c20.25-1.59,40.61,0.3,60.23,5.58C1053.97,1513.62,1053.23,1515.44,1052.02,1515.11z"/>
<path class="st2" d="M955.33,1515.6c-1.4-6.07-0.61-12.43,2.25-17.97c2.86-5.53,7.59-9.87,13.35-12.23
	c1.17-0.47,1.96,1.32,0.79,1.79c-5.37,2.19-9.77,6.23-12.43,11.39c-2.65,5.16-3.37,11.09-2.03,16.73
	C957.56,1516.54,955.62,1516.82,955.33,1515.6z"/>
<path class="st2" d="M911.58,1546.83c10.74,6.84,23.66,9.37,36.18,7.11c1.24-0.23,1.53,1.71,0.29,1.94
	c-13.04,2.33-26.48-0.33-37.64-7.47C909.35,1547.72,910.53,1546.15,911.58,1546.83z"/>
<path class="st2" d="M1011.93,1508.59c0.05,2.46,0.72,4.87,1.93,7.01c1.21,2.14,2.94,3.95,5.03,5.25c1.07,0.67-0.1,2.23-1.17,1.57
	c-2.3-1.46-4.2-3.45-5.55-5.81c-1.35-2.36-2.1-5.02-2.18-7.73c-0.03-0.26,0.04-0.51,0.19-0.72c0.15-0.21,0.38-0.35,0.63-0.39
	c0.26-0.04,0.52,0.03,0.72,0.18C1011.75,1508.1,1011.89,1508.33,1011.93,1508.59z"/>
<path class="st3" d="M1034.38,1167.02c1.62-1.61,2.87-3.56,3.66-5.71c0.79-2.15,1.09-4.45,0.9-6.73c-0.2-2.28-0.89-4.49-2.03-6.47
	c-1.14-1.98-2.71-3.69-4.58-5.01l25.56-123.7l-27.58,8.7l-20.56,119.67c-2,3.3-2.72,7.21-2.03,11c0.69,3.79,2.76,7.19,5.79,9.57
	c3.04,2.37,6.84,3.55,10.68,3.31C1028.04,1171.4,1031.66,1169.75,1034.38,1167.02z"/>
<path class="st4" d="M1093.46,836.37l-17.08-12.89c0,0-15.07-1.07-17.74,26.11c-2.67,27.17-19.38,131.47-19.38,131.47l-26.14,121.06
	l36.18,7.94l27.99-130.64l28.02-90.13L1093.46,836.37z"/>
<path class="st5" d="M1080.44,1060.37l-81.94-63.71c-1.28-1-2.11-2.46-2.31-4.06c-0.2-1.61,0.24-3.23,1.23-4.5l55.75-71.7
	c0.99-1.28,2.45-2.11,4.06-2.31c1.61-0.2,3.22,0.24,4.5,1.24l81.94,63.71c1.28,0.99,2.11,2.46,2.31,4.06
	c0.2,1.61-0.24,3.23-1.23,4.5l-55.75,71.7c-0.99,1.28-2.46,2.11-4.06,2.31C1083.34,1061.81,1081.72,1061.36,1080.44,1060.37z"/>
<path class="st2" d="M1079.99,1053.78l-74.98-58.3c-1.13-0.88-1.87-2.18-2.05-3.6c-0.18-1.43,0.22-2.86,1.1-4l50.54-65
	c0.88-1.13,2.18-1.87,3.6-2.05c1.43-0.18,2.86,0.22,4,1.1l74.98,58.3c1.13,0.88,1.87,2.18,2.05,3.6c0.18,1.43-0.22,2.86-1.1,4
	l-50.54,65c-0.88,1.13-2.18,1.87-3.6,2.05C1082.57,1055.06,1081.13,1054.66,1079.99,1053.78z"/>
<path class="st6" d="M1014.84,993.82c-0.28-0.22-0.47-0.54-0.51-0.9c-0.04-0.36,0.05-0.72,0.27-1l25.49-32.79
	c0.22-0.28,0.54-0.47,0.9-0.51c0.18-0.02,0.36-0.01,0.53,0.04c0.17,0.05,0.33,0.13,0.47,0.24c0.14,0.11,0.26,0.24,0.35,0.4
	c0.09,0.16,0.15,0.33,0.17,0.5c0.02,0.18,0.01,0.36-0.04,0.53c-0.05,0.17-0.13,0.33-0.24,0.47l-25.5,32.79
	c-0.22,0.28-0.54,0.47-0.9,0.51C1015.48,994.14,1015.12,994.04,1014.84,993.82z"/>
<path class="st6" d="M1019.06,997.11c-0.28-0.22-0.47-0.54-0.51-0.9c-0.05-0.36,0.05-0.72,0.27-1l25.49-32.79
	c0.22-0.28,0.55-0.47,0.9-0.51c0.36-0.04,0.72,0.05,1,0.28c0.28,0.22,0.47,0.54,0.51,0.9c0.04,0.36-0.06,0.72-0.28,1l-25.49,32.79
	c-0.22,0.28-0.54,0.47-0.9,0.51C1019.71,997.43,1019.35,997.33,1019.06,997.11z"/>
<path class="st6" d="M1037.73,981.82c-0.28-0.22-0.47-0.55-0.51-0.9c-0.05-0.36,0.05-0.72,0.27-1l11.05-14.21
	c0.11-0.14,0.24-0.26,0.4-0.35c0.16-0.09,0.33-0.15,0.5-0.17c0.18-0.02,0.36-0.01,0.53,0.04c0.17,0.05,0.33,0.13,0.47,0.24
	c0.14,0.11,0.26,0.24,0.35,0.4c0.09,0.16,0.15,0.33,0.17,0.5c0.02,0.18,0.01,0.36-0.04,0.53s-0.13,0.33-0.24,0.47l-11.05,14.21
	c-0.22,0.28-0.54,0.47-0.9,0.51C1038.38,982.14,1038.02,982.04,1037.73,981.82z"/>
<path class="st6" d="M1043.43,1009.71c-0.28-0.22-0.47-0.54-0.51-0.9c-0.04-0.36,0.05-0.72,0.27-1l40.25-51.76
	c0.11-0.14,0.24-0.26,0.4-0.35s0.32-0.14,0.5-0.17c0.18-0.02,0.35-0.01,0.53,0.04c0.17,0.05,0.33,0.13,0.47,0.24
	c0.14,0.11,0.26,0.25,0.35,0.4c0.09,0.15,0.14,0.33,0.17,0.5c0.02,0.18,0.01,0.36-0.04,0.53c-0.05,0.17-0.13,0.33-0.24,0.47
	l-40.25,51.76c-0.22,0.28-0.55,0.47-0.9,0.51C1044.07,1010.03,1043.71,1009.93,1043.43,1009.71z"/>
<path class="st6" d="M1047.66,1013c-0.28-0.22-0.47-0.55-0.51-0.9c-0.04-0.36,0.05-0.72,0.27-1l40.25-51.76
	c0.11-0.14,0.24-0.26,0.4-0.35c0.16-0.09,0.33-0.15,0.5-0.17c0.18-0.02,0.36-0.01,0.53,0.04c0.17,0.05,0.33,0.13,0.47,0.24
	c0.14,0.11,0.26,0.24,0.35,0.4c0.09,0.15,0.14,0.33,0.17,0.5c0.02,0.18,0.01,0.36-0.04,0.53c-0.05,0.17-0.13,0.33-0.24,0.47
	l-40.25,51.76c-0.22,0.28-0.55,0.47-0.9,0.51C1048.3,1013.31,1047.94,1013.22,1047.66,1013z"/>
<path class="st6" d="M1057.25,1020.45c-0.28-0.22-0.47-0.54-0.51-0.9c-0.05-0.36,0.05-0.72,0.27-1l40.25-51.76
	c0.11-0.14,0.24-0.26,0.4-0.35c0.16-0.09,0.32-0.14,0.5-0.17c0.18-0.02,0.36-0.01,0.53,0.04c0.17,0.05,0.33,0.13,0.47,0.24
	c0.14,0.11,0.26,0.24,0.34,0.4c0.09,0.15,0.15,0.33,0.17,0.5c0.02,0.18,0.01,0.36-0.04,0.53c-0.05,0.17-0.13,0.33-0.24,0.47
	l-40.25,51.76c-0.22,0.28-0.55,0.47-0.9,0.51C1057.89,1020.77,1057.53,1020.67,1057.25,1020.45z"/>
<path class="st6" d="M1061.47,1023.74c-0.28-0.22-0.47-0.54-0.51-0.9c-0.05-0.36,0.05-0.72,0.27-1l40.25-51.76
	c0.11-0.14,0.24-0.26,0.4-0.35c0.16-0.09,0.33-0.14,0.5-0.17c0.18-0.02,0.36-0.01,0.53,0.04c0.17,0.05,0.33,0.13,0.47,0.24
	c0.14,0.11,0.26,0.24,0.35,0.4c0.09,0.16,0.14,0.33,0.17,0.5c0.02,0.18,0.01,0.36-0.04,0.53c-0.05,0.17-0.13,0.33-0.24,0.47
	l-40.25,51.76c-0.22,0.28-0.54,0.47-0.9,0.51C1062.12,1024.06,1061.76,1023.96,1061.47,1023.74z"/>
<path class="st6" d="M1071.06,1031.2c-0.28-0.22-0.47-0.55-0.51-0.9c-0.04-0.36,0.05-0.72,0.27-1l40.25-51.76
	c0.11-0.14,0.24-0.26,0.4-0.35c0.15-0.09,0.32-0.14,0.5-0.17c0.18-0.02,0.36-0.01,0.53,0.04c0.17,0.05,0.33,0.13,0.47,0.24
	c0.14,0.11,0.26,0.24,0.35,0.4c0.09,0.15,0.15,0.33,0.17,0.5c0.02,0.18,0.01,0.36-0.04,0.53c-0.05,0.17-0.13,0.33-0.24,0.47
	l-40.25,51.76c-0.22,0.28-0.55,0.47-0.9,0.51C1071.71,1031.52,1071.35,1031.42,1071.06,1031.2z"/>
<path class="st6" d="M1075.29,1034.48c-0.28-0.22-0.47-0.55-0.51-0.9c-0.04-0.36,0.05-0.72,0.27-1l40.25-51.76
	c0.22-0.28,0.55-0.47,0.9-0.51c0.36-0.04,0.71,0.05,1,0.28c0.28,0.22,0.47,0.54,0.51,0.9s-0.05,0.72-0.27,1l-40.25,51.76
	c-0.22,0.28-0.55,0.47-0.9,0.51C1075.93,1034.8,1075.57,1034.7,1075.29,1034.48z"/>
<path class="st2" d="M1008.02,1094.6c0.31,0,0.56-0.25,0.56-0.56s-0.25-0.56-0.56-0.56s-0.56,0.25-0.56,0.56
	S1007.71,1094.6,1008.02,1094.6z"/>
<path class="st7" d="M1089.06,711.37c-1.96,10.51-5.16,20.75-9.56,30.5c-25.14,53.19,46.46,35.85,72.05,35.85
	c27.98,0,54.75,14.71,50.66-50.66c-1.75-27.92-22.68-50.66-50.66-50.66C1127.66,676.4,1094.06,687.02,1089.06,711.37z"/>
<path class="st3" d="M1177.64,1491.48h-23.84l-11.34-91.94h35.18V1491.48z"/>
<path class="st8" d="M1190.22,1532.78h-17.1l-3.05-16.14l-7.82,16.14h-45.34c-2.17,0-4.29-0.69-6.04-1.98
	c-1.75-1.29-3.04-3.1-3.69-5.18c-0.65-2.07-0.61-4.3,0.1-6.36c0.71-2.05,2.06-3.83,3.84-5.06l36.21-25.01v-16.32l38.08,2.27
	L1190.22,1532.78z"/>
<path class="st3" d="M1319.25,1461.4l-19.13,14.22l-63.97-67.01l28.23-20.99L1319.25,1461.4z"/>
<path class="st8" d="M1353.99,1487.03l-13.72,10.2l-12.08-11.13l3.36,17.61l-36.38,27.05c-1.74,1.3-3.86,2-6.03,2.01
	c-2.17,0.01-4.29-0.67-6.05-1.95c-1.76-1.28-3.06-3.09-3.72-5.16c-0.66-2.07-0.64-4.3,0.06-6.36l14.13-41.67l-9.74-13.09l31.92-20.9
	L1353.99,1487.03z"/>
<path class="st3" d="M1099.57,1068.33l113.15-17.62l-22.5-67.7h-90.65V1068.33z"/>
<path class="st7" d="M1205.39,1017.11c0,0,45.23,39.07,24.36,150.47l-25.48,109.14l69.41,120.5l-35.29,19.25l-85.53-118.88
	l-39.14-91.81l-20.7-160.91L1205.39,1017.11z"/>
<path class="st7" d="M1135.29,1231.94l-2.72,42.13l7.96,124.75l39.53,13.61l7.49-127.82L1135.29,1231.94z"/>
<path class="st4" d="M1123.13,791.74l43.74,1.71l17.43,28.94l39.77,7.76l-23.74,120.11l4.37,68.37l-39.6-0.24
	c-28.54-0.17-56.14,10.2-77.51,29.12l1.18-88.75l-17.03-66.25l3.83-69.46l31.99-4L1123.13,791.74z"/>
<path class="st3" d="M1147.37,777.7c22.73,0,41.17-18.43,41.17-41.17c0-22.73-18.43-41.17-41.17-41.17s-41.16,18.43-41.16,41.17
	C1106.2,759.27,1124.63,777.7,1147.37,777.7z"/>
<path class="st7" d="M1119.41,694.57c7.21-4.4,15.48-6.78,23.92-6.89c8.45-0.11,16.77,2.05,24.1,6.25
	c7.33,4.21,13.39,10.3,17.55,17.65c4.16,7.35,6.28,15.69,6.12,24.13c-20.98,5.27-43.01,9.3-65.38,1.26l-5.28-12.93l-3.11,12.94
	c-6.81,2.78-13.64,5.14-20.47-0.03c-0.28-8.42,1.66-16.77,5.62-24.21C1106.43,705.32,1112.27,699.05,1119.41,694.57z"/>
<path class="st9" d="M1216.46,1101.61l5.55,50.36c0.39,1.26,1.17,2.36,2.22,3.14c1.06,0.78,2.34,1.2,3.65,1.2h25.58
	c1.32,0,2.6-0.42,3.65-1.2c1.06-0.78,1.84-1.88,2.22-3.14l4.6-38.6c1.33,0.65,2.79,0.98,4.27,0.95c1.48-0.02,2.93-0.4,4.23-1.09
	c1.3-0.69,2.42-1.69,3.27-2.9c0.84-1.21,1.39-2.61,1.59-4.07c0.2-1.46,0.05-2.96-0.44-4.35c-0.49-1.39-1.3-2.65-2.37-3.67
	c-1.07-1.02-2.36-1.77-3.78-2.19c-1.42-0.42-2.91-0.5-4.36-0.23c-0.57-0.68-1.29-1.22-2.09-1.59c-0.81-0.37-1.68-0.56-2.57-0.56
	h-39.34c-0.96,0-1.91,0.23-2.77,0.66c-0.86,0.43-1.6,1.06-2.18,1.84c-0.57,0.77-0.95,1.67-1.11,2.62
	C1216.12,1099.72,1216.18,1100.7,1216.46,1101.61z M1264.74,1110.77l2.82-9.15c0.33-1.06,0.36-2.18,0.09-3.25
	c0.12-0.01,0.23-0.04,0.35-0.04c1.77,0,3.46,0.7,4.71,1.95s1.95,2.94,1.95,4.71c0,1.77-0.7,3.46-1.95,4.71
	c-1.25,1.25-2.95,1.95-4.71,1.95C1266.86,1111.65,1265.74,1111.34,1264.74,1110.77z"/>
<path class="st3" d="M1255.04,1156.35c-1.61-1.62-2.85-3.58-3.63-5.73c-0.78-2.15-1.07-4.45-0.86-6.73
	c0.21-2.28,0.91-4.49,2.07-6.46c1.15-1.98,2.72-3.68,4.61-4.98l-24.93-123.82l27.53,8.84l19.95,119.77
	c1.98,3.31,2.68,7.22,1.97,11.01c-0.71,3.79-2.79,7.18-5.84,9.54c-3.05,2.36-6.86,3.52-10.7,3.25
	C1261.35,1160.76,1257.74,1159.1,1255.04,1156.35z"/>
<path class="st4" d="M1207,843.04l17.08-12.89c0,0,15.07-1.07,17.74,26.11c2.67,27.17,19.38,131.47,19.38,131.47l26.14,121.06
	l-36.18,7.94l-28-130.64l-28.02-90.13L1207,843.04z"/>
<path class="st9" d="M1059.58,955.75c5.34,0,9.67-4.33,9.67-9.67c0-5.34-4.33-9.67-9.67-9.67s-9.67,4.33-9.67,9.67
	C1049.91,951.42,1054.24,955.75,1059.58,955.75z"/>
<path class="st3" d="M751.24,1603.65l20.15,0l9.59-77.72l-29.74,0L751.24,1603.65z"/>
<path class="st8" d="M746.1,1597.07h5.67l22.14-9.01l11.87,9c6.71,0,13.14,2.66,17.88,7.41c4.74,4.74,7.41,11.17,7.41,17.88v0.82
	l-64.97,0L746.1,1597.07z"/>
<path class="st3" d="M829.33,1590.95l19.66,4.44l26.47-73.7l-29.01-6.55L829.33,1590.95z"/>
<path class="st8" d="M825.77,1583.4l5.53,1.25l23.58-3.91l9.59,11.4h0c6.54,1.48,12.23,5.49,15.81,11.17
	c3.58,5.67,4.76,12.53,3.29,19.07l-0.18,0.8l-63.38-14.31L825.77,1583.4z"/>
<path class="st7" d="M714.36,1203.85L732.58,1408c0,0-6.83,122.56,15.2,165.69h31.95l15.82-176.89l1.99-118.73l68.5,100.17
	l-43.63,192.56l39.32,3.52l70.8-208.97l-77.78-196.17L714.36,1203.85z"/>
<path class="st10" d="M733.44,878.74c25.95,0,46.99-21.04,46.99-46.99c0-25.95-21.04-46.99-46.99-46.99s-46.99,21.04-46.99,46.99
	C686.45,857.7,707.49,878.74,733.44,878.74z"/>
<path class="st11" d="M816.05,923.52l-38.55-16.54l-18.77-19.91l-46.88,7.56l-12.44,21.33l-40.27,37.44l47.18,213.32l-1.43,46.59
	c0,0,30.2,13.59,161.15-17.7c1.57-0.38-1.72-2.02-1.72-2.02L816.05,923.52z"/>
<path class="st8" d="M684.57,858.41c-0.33-0.45-0.65-0.9-0.97-1.35c-0.13,0.27-0.23,0.55-0.38,0.82L684.57,858.41z"/>
<path class="st7" d="M780.18,797.38c-3.14-6.84-8.74-12.25-15.69-15.16c-6.89-2.78-14.58-2.77-21.46,0.02
	c-6.21-3.92-13.11-7.04-20.39-7.42c-7.27-0.39-14.96,2.31-19.43,8.25c-1,1.57-2.14,3.04-3.4,4.41c-3.6,3.33-9.07,2.85-13.86,2.17
	c2.15,1.84,4.3,3.68,6.44,5.52c-2.6,0.68-5.2,1.36-7.8,2.04c3.03,1.84,6.07,3.68,9.1,5.52c-8.8,5.28-12.8,16.82-11.75,27.29
	c1,9.92,5.79,18.99,11.51,27.05c2.28-4.82,1.79-10.58,1.75-16.01c-0.04-5.73,0.98-12.24,5.57-15.45c3.1-2.16,7.09-2.26,10.82-2.24
	c18.85,0.1,37.68,1.28,56.4,3.52c2.54,0.11,5.02,0.83,7.22,2.1c4.14,2.82,4.95,8.65,5.36,13.76c2.19-8.44,3.26-17.13,3.18-25.86
	C783.96,810.21,782.74,803.56,780.18,797.38z"/>
<path class="st2" d="M794.82,1346.96c40.85,0,73.96-33.11,73.96-73.96s-33.11-73.96-73.96-73.96c-40.85,0-73.96,33.11-73.96,73.96
	S753.97,1346.96,794.82,1346.96z"/>
<path class="st5" d="M794.81,1197.39c-3.8,0-7.6,0.29-11.36,0.85c-1.92,0.28-3.8,0.64-5.65,1.08
	c-13.64,3.15-26.15,10.02-36.11,19.86c-9.97,9.84-17,22.25-20.33,35.85c-3.32,13.6-2.8,27.86,1.51,41.19s12.23,25.19,22.89,34.27
	c1.27,1.07,2.55,2.1,3.88,3.09c9.59,7.15,20.75,11.93,32.55,13.93c11.8,2,23.91,1.17,35.33-2.42s21.82-9.85,30.35-18.24
	c8.53-8.4,14.94-18.7,18.71-30.06c3.77-11.36,4.78-23.45,2.96-35.28c-1.82-11.83-6.42-23.06-13.43-32.76s-16.22-17.6-26.88-23.05
	C818.58,1200.23,806.78,1197.39,794.81,1197.39z M794.81,1345.32c-15.38,0.02-30.36-4.9-42.73-14.02c-1.35-0.99-2.65-2.01-3.91-3.09
	c-10.38-8.76-18.09-20.27-22.23-33.21c-4.14-12.94-4.55-26.78-1.19-39.95c3.37-13.16,10.38-25.11,20.22-34.47
	c9.85-9.36,22.13-15.76,35.45-18.46c1.84-0.38,3.68-0.67,5.56-0.9c2.93-0.36,5.89-0.54,8.84-0.54c19.18,0,37.57,7.62,51.14,21.18
	c13.56,13.56,21.18,31.96,21.18,51.14c0,19.18-7.62,37.58-21.18,51.14C832.39,1337.7,813.99,1345.32,794.81,1345.32z"/>
<path class="st9" d="M758.54,1258.21h72.56c2.66,0,4.81-2.15,4.81-4.81v-0.24c0-2.66-2.15-4.81-4.81-4.81h-72.56
	c-2.66,0-4.81,2.15-4.81,4.81v0.24C753.72,1256.05,755.88,1258.21,758.54,1258.21z"/>
<path class="st9" d="M758.54,1277.93h72.56c2.66,0,4.81-2.16,4.81-4.81v-0.24c0-2.66-2.15-4.81-4.81-4.81h-72.56
	c-2.66,0-4.81,2.16-4.81,4.81v0.24C753.72,1275.78,755.88,1277.93,758.54,1277.93z"/>
<path class="st9" d="M758.54,1297.65h72.56c2.66,0,4.81-2.16,4.81-4.81v-0.24c0-2.66-2.15-4.81-4.81-4.81h-72.56
	c-2.66,0-4.81,2.16-4.81,4.81v0.24C753.72,1295.5,755.88,1297.65,758.54,1297.65z"/>
<path class="st12" d="M1622.29,1601.14l-21.13,0l-10.05-81.5l31.19,0L1622.29,1601.14z"/>
<path class="st12" d="M1522.33,1601.14l-21.12,0l-10.05-81.5l31.18,0L1522.33,1601.14z"/>
<path class="st8" d="M1523.08,1623.18l-64.97,0v-0.82c0-6.71,2.66-13.14,7.4-17.88c4.75-4.74,11.18-7.41,17.89-7.41l0,0l11.86-9
	l22.15,9.01h5.67V1623.18z"/>
<path class="st8" d="M1625.75,1623.18l-64.97,0v-0.82c0-6.71,2.66-13.14,7.4-17.88c4.75-4.74,11.18-7.41,17.88-7.41h0.01l11.86-9
	l22.15,9.01h5.67V1623.18z"/>
<path class="st7" d="M1501.61,1118.81l-32.11,195.53l8.74,29.14l-11.47,20.64l16.84,181.23l-6.84,15.05l19.1,11.78h38.87
	l2.06-164.07l9.6-24.09v-13.28l19.54-100.04l3.6,140.11l5.68,24.13l-4.77,17.18l6.24,12.03l16.57,111.61h43.58l-3.37-25.96
	c3.8-1.92,6.85-5.05,8.67-8.9c1.82-3.84,2.32-8.19,1.41-12.34l-2.5-11.38l5.68-33.65l10.36-187.73l-2.92-151.48l-50.98-38.98
	L1501.61,1118.81z"/>
<path class="st12" d="M1575.23,867.73c22.36,0,40.48-18.13,40.48-40.49c0-22.36-18.12-40.49-40.48-40.49
	c-22.37,0-40.49,18.13-40.49,40.49C1534.74,849.6,1552.86,867.73,1575.23,867.73z"/>
<path class="st12" d="M1486.76,1196.4c1.77-1.82,3.11-4.01,3.93-6.4c0.83-2.4,1.12-4.94,0.86-7.46c-0.27-2.52-1.08-4.95-2.39-7.12
	c-1.3-2.17-3.07-4.03-5.17-5.44l15.74-59.54l-30.33,10.2l-10.3,54.98c-2.14,3.69-2.86,8.04-2.01,12.22c0.84,4.18,3.2,7.9,6.61,10.47
	s7.64,3.79,11.89,3.44C1479.84,1201.38,1483.82,1199.48,1486.76,1196.4z"/>
<path class="st4" d="M1503.33,910.54l-6.51-1.35l-5.55,3.08c0,0-15.51,20.68-15.51,39.64s-18.96,201.64-18.96,201.64l34.47,15.51
	l27.57-143.04L1503.33,910.54z"/>
<path class="st7" d="M1610.68,797.55c0,0,10.59-20.24-12.71-22.08c0,0-19.86-18.02-40.1-3.29c0,0-11.04,0-17.08,12.5
	c0,0-8.69-3.29-10.6,5.52c0,0-6.35,18.4,0,34.97c6.36,16.56,8.47,18.4,8.47,18.4s-10.44-34.73,14.98-36.57
	c25.41-1.84,53.86-17.72,55.97,2.52c2.12,20.24,5.31,25.23,5.31,25.23S1635.04,805.83,1610.68,797.55z"/>
<path class="st2" d="M1758.58,1364.11c-3.05,0-6-1.12-8.28-3.16l-122.53-109.07c-2.47-2.2-3.96-5.3-4.16-8.6
	c-0.19-3.3,0.94-6.55,3.14-9.02l78.49-88.18c2.2-2.47,5.3-3.96,8.6-4.16c3.3-0.19,6.55,0.93,9.02,3.13l122.54,109.07
	c2.47,2.2,3.96,5.29,4.16,8.6c0.19,3.3-0.94,6.55-3.14,9.02l-78.5,88.18c-1.08,1.23-2.4,2.23-3.88,2.94
	c-1.47,0.71-3.08,1.13-4.72,1.22C1759.08,1364.1,1758.83,1364.11,1758.58,1364.11z"/>
<path class="st5" d="M1758.58,1364.91c-3.25,0.01-6.39-1.19-8.81-3.36l-122.53-109.07c-2.63-2.34-4.22-5.64-4.43-9.15
	c-0.2-3.52,1-6.97,3.34-9.6l78.49-88.18c2.35-2.63,5.64-4.22,9.15-4.42c3.52-0.2,6.97,0.99,9.61,3.33l122.53,109.07
	c2.63,2.34,4.22,5.64,4.43,9.15c0.2,3.52-1,6.97-3.34,9.6l-78.5,88.18c-1.15,1.31-2.56,2.37-4.13,3.13c-1.57,0.76-3.28,1.2-5.02,1.3
	C1759.11,1364.91,1758.85,1364.91,1758.58,1364.91z M1714.57,1144.3c-1.42,0-2.83,0.3-4.13,0.88c-1.3,0.58-2.46,1.43-3.4,2.49
	l-78.5,88.18c-1.77,2-2.68,4.62-2.52,7.28c0.15,2.67,1.36,5.16,3.35,6.94l122.53,109.07c0.99,0.88,2.14,1.56,3.39,1.99
	s2.57,0.62,3.9,0.54c1.32-0.08,2.61-0.41,3.8-0.99c1.19-0.58,2.26-1.38,3.14-2.37l78.49-88.18c1.78-1.99,2.69-4.61,2.53-7.28
	c-0.15-2.67-1.36-5.16-3.35-6.94l-122.54-109.07C1719.42,1145.21,1717.04,1144.3,1714.57,1144.3z"/>
<path class="st9" d="M1803.02,1280.6c-1.33,0-2.6-0.48-3.59-1.36l-96.18-85.62c-0.54-0.47-0.97-1.04-1.28-1.68
	c-0.31-0.64-0.5-1.33-0.54-2.04c-0.04-0.71,0.06-1.42,0.29-2.09c0.23-0.67,0.6-1.29,1.07-1.82c0.47-0.53,1.04-0.96,1.68-1.27
	c0.64-0.31,1.34-0.49,2.05-0.53c0.71-0.04,1.42,0.06,2.09,0.3c0.67,0.23,1.29,0.6,1.82,1.07l96.18,85.62
	c0.82,0.73,1.4,1.69,1.66,2.75c0.26,1.06,0.19,2.18-0.2,3.21c-0.39,1.02-1.08,1.9-1.99,2.52
	C1805.18,1280.27,1804.11,1280.6,1803.02,1280.6z"/>
<path class="st9" d="M1784.67,1301.21c-1.32,0-2.6-0.48-3.59-1.36l-96.18-85.62c-0.53-0.47-0.96-1.04-1.27-1.68
	c-0.31-0.64-0.49-1.33-0.53-2.04c-0.04-0.71,0.06-1.42,0.29-2.09c0.23-0.67,0.6-1.29,1.07-1.82c0.47-0.53,1.04-0.96,1.68-1.27
	c0.64-0.31,1.33-0.49,2.04-0.53c0.71-0.04,1.42,0.06,2.09,0.29c0.67,0.23,1.28,0.6,1.81,1.07l96.19,85.62
	c0.81,0.73,1.39,1.69,1.65,2.75c0.26,1.06,0.19,2.18-0.2,3.21c-0.39,1.02-1.08,1.9-1.98,2.52
	C1786.84,1300.88,1785.77,1301.21,1784.67,1301.21z"/>
<path class="st9" d="M1766.32,1321.82c-1.32,0-2.6-0.48-3.58-1.37l-96.19-85.62c-0.53-0.47-0.96-1.04-1.27-1.68
	c-0.31-0.64-0.49-1.33-0.53-2.04c-0.04-0.71,0.05-1.42,0.29-2.09c0.23-0.67,0.59-1.29,1.07-1.82c0.47-0.53,1.04-0.96,1.68-1.27
	c0.64-0.31,1.33-0.49,2.04-0.53c0.71-0.04,1.42,0.06,2.09,0.29c0.67,0.23,1.29,0.6,1.81,1.07l96.19,85.62
	c0.82,0.73,1.39,1.69,1.65,2.75c0.26,1.06,0.19,2.18-0.2,3.2c-0.39,1.02-1.08,1.9-1.98,2.53
	C1768.49,1321.49,1767.42,1321.82,1766.32,1321.82z"/>
<path class="st12" d="M1656.33,1199.91c-1.23-2.21-1.97-4.67-2.15-7.2c-0.18-2.53,0.19-5.06,1.1-7.43c0.9-2.37,2.31-4.51,4.13-6.27
	c1.82-1.76,4.01-3.1,6.4-3.93l0.11-61.59l26.68,17.66l-4.19,55.78c1.13,4.12,0.7,8.5-1.2,12.32c-1.89,3.82-5.12,6.82-9.08,8.41
	c-3.95,1.6-8.35,1.69-12.37,0.26C1661.74,1206.51,1658.39,1203.65,1656.33,1199.91z"/>
<path class="st4" d="M1658.8,927.41l11.92-11.49l8.76,6.32c0,0,8.62,10.34,15.51,41.36c6.89,31.02,0,201.64,0,201.64l-37.92-5.17
	l5.17-89.62l-15.51-75.83L1658.8,927.41z"/>
<path class="st11" d="M1676.4,918.72l-40.16-19.19l-27.28-25.3l-49.73-0.37l-16.04,20.85l-42.35,14.39l7.06,146.03l-4.81,11.23
	c0,0,3.35,3.03,4.88,4.72c1.53,1.69-2.12,15.88-2.12,15.88l-2.05,15.43l5.7,4.08l-7.42,8.76l-1.84,13.81
	c0,0,129.49-32.18,153.95,21.13c1.3,2.82-1.89-24.71-1.89-24.71l-3.18-20.15l3.16-18.09l4.81-4.81l-8.07-8.07l5.17-38.3
	L1676.4,918.72z"/>
<path class="st10" d="M765.47,1242.47c1-2.53,1.43-5.25,1.26-7.97c-0.17-2.72-0.93-5.36-2.23-7.75c-1.3-2.39-3.11-4.46-5.3-6.08
	c-2.19-1.62-4.71-2.73-7.37-3.27l-8.92-65.52l-25.87,22.62l12.44,58.75c-0.61,4.54,0.48,9.14,3.04,12.94
	c2.56,3.8,6.43,6.52,10.87,7.65c4.44,1.14,9.14,0.6,13.21-1.49C760.65,1250.26,763.82,1246.75,765.47,1242.47z"/>
<path class="st11" d="M664.1,952.21l-7.01,1.34l-4.24,5.34c0,0-6.86,26.9,0.95,45.69c7.81,18.8,64.29,207.74,64.29,207.74
	l40.57,1.18l-31.6-153.19L664.1,952.21z"/>
<path class="st10" d="M824.03,1232.86c-1.87-1.98-3.28-4.34-4.14-6.92s-1.14-5.32-0.82-8.02c0.32-2.7,1.22-5.3,2.65-7.62
	c1.43-2.31,3.35-4.29,5.62-5.78l-16.15-64.12l32.44,11.34l10.36,59.15c2.25,3.99,2.97,8.66,2,13.14c-0.96,4.48-3.54,8.45-7.23,11.16
	c-3.69,2.71-8.25,3.97-12.81,3.54C831.4,1238.3,827.16,1236.21,824.03,1232.86z"/>
<path class="st11" d="M809.86,925.74l7.01-1.37l5.92,3.37c0,0,16.39,22.4,16.15,42.75c-0.24,20.35,17.8,216.73,17.8,216.73
	l-37.2,16.22l-27.8-153.93L809.86,925.74z"/>
</svg>
