<svg xmlns="http://www.w3.org/2000/svg" xmlns:xlink="http://www.w3.org/1999/xlink" version="1.1" width="1000" height="1000" viewBox="0 0 1000 1000" xml:space="preserve">
<desc>Created with Fabric.js 3.5.0</desc>
<defs>
</defs>
<rect x="0" y="0" width="100%" height="100%" fill="#FBEDEC"/>
<g transform="matrix(1 0 0 1 500 358.1453)" id="837049">
<g style="">
		<g transform="matrix(1.0791 0 0 1.0791 -87.3162 217.1919)" id="952576" clip-path="url(#CLIPPATH_9)">
<clipPath id="CLIPPATH_9">
	<rect transform="matrix(1 0 0 1 84.2237 -201.2703)" id="clip0_735_424" x="-251.8155" y="-262.8775" rx="0" ry="0" width="503.631" height="525.755"/>
</clipPath>
<path style="stroke: none; stroke-width: 0; stroke-dasharray: none; stroke-linecap: butt; stroke-dashoffset: 0; stroke-linejoin: miter; stroke-miterlimit: 4; is-custom-font: none; font-file-url: none; fill: rgb(242,242,242); fill-rule: nonzero; opacity: 1;" transform=" translate(-240.5918, -464.1478)" d="M 276.401 423.805 C 275.467 422.225 271.394 423.916 270.648 422.481 C 269.902 421.045 273.675 418.864 275.834 413.878 C 276.223 412.977 278.672 407.312 276.858 405.565 C 273.419 402.249 257.672 415.926 252.163 411.452 C 250.95 410.473 250.104 408.514 246.454 405.32 C 244.996 404.052 244.117 403.484 243.271 403.696 C 242.058 403.996 241.969 405.621 240.667 408.793 C 238.72 413.567 237.573 413.277 236.438 417.083 C 235.592 419.91 235.793 421.557 234.802 421.869 C 233.4 422.325 232.109 419.32 230.34 419.587 C 228.526 419.866 227.435 423.349 227.09 425.964 C 226.445 430.872 228.236 434.099 229.238 437.505 C 230.317 441.199 230.963 446.819 228.459 454.788 L 203.664 524.643 C 209.139 510.309 224.987 471.013 231.642 456.412 C 233.567 452.195 235.681 447.921 240.044 446.23 C 244.239 444.605 250.004 445.573 257.349 443.804 C 258.206 443.592 260.588 442.991 260.888 441.589 C 261.133 440.432 259.731 439.786 259.953 438.695 C 260.243 437.238 262.991 437.226 266.386 435.546 C 268.767 434.366 270.258 432.953 271.538 431.74 C 271.928 431.373 277.659 425.886 276.401 423.772 V 423.805 Z" stroke-linecap="round"/>
</g>
		<g transform="matrix(1.0791 0 0 1.0791 -149.0344 245.3091)" id="335371" clip-path="url(#CLIPPATH_10)">
<clipPath id="CLIPPATH_10">
	<rect transform="matrix(1 0 0 1 141.4163 -227.3248)" id="clip0_735_424" x="-251.8155" y="-262.8775" rx="0" ry="0" width="503.631" height="525.755"/>
</clipPath>
<path style="stroke: none; stroke-width: 0; stroke-dasharray: none; stroke-linecap: butt; stroke-dashoffset: 0; stroke-linejoin: miter; stroke-miterlimit: 4; is-custom-font: none; font-file-url: none; fill: rgb(242,242,242); fill-rule: nonzero; opacity: 1;" transform=" translate(-183.3992, -490.2023)" d="M 178.869 460.585 C 177.823 460.585 177.478 463.078 176.554 463.022 C 175.641 462.978 175.653 460.496 173.827 457.992 C 173.494 457.547 171.424 454.698 170.044 455.087 C 167.428 455.822 169.598 467.496 165.804 468.909 C 164.969 469.221 163.767 469.065 161.152 469.944 C 160.106 470.289 159.572 470.556 159.438 471.035 C 159.238 471.714 160.006 472.226 161.196 473.784 C 162.977 476.109 162.498 476.599 164.045 478.246 C 165.192 479.47 166.048 479.849 165.926 480.427 C 165.748 481.24 163.901 481.017 163.522 481.963 C 163.133 482.931 164.535 484.478 165.715 485.402 C 167.929 487.138 170.044 487.183 172.002 487.672 C 174.128 488.206 177.077 489.508 180.26 493.036 L 207.392 525.354 C 201.939 518.532 187.226 499.413 181.985 491.935 C 180.471 489.776 178.98 487.494 179.414 484.879 C 179.826 482.353 181.963 479.804 183.22 475.687 C 183.365 475.208 183.754 473.861 183.153 473.316 C 182.653 472.86 181.94 473.361 181.462 472.938 C 180.827 472.381 181.618 471.024 181.773 468.876 C 181.885 467.362 181.618 466.227 181.395 465.248 C 181.328 464.958 180.282 460.551 178.891 460.563 L 178.869 460.585 Z" stroke-linecap="round"/>
</g>
		<g transform="matrix(1.0791 0 0 1.0791 -117.4272 205.1889)" id="172737" clip-path="url(#CLIPPATH_11)">
<clipPath id="CLIPPATH_11">
	<rect transform="matrix(1 0 0 1 112.1274 -190.1459)" id="clip0_735_424" x="-251.8155" y="-262.8775" rx="0" ry="0" width="503.631" height="525.755"/>
</clipPath>
<path style="stroke: none; stroke-width: 0; stroke-dasharray: none; stroke-linecap: butt; stroke-dashoffset: 0; stroke-linejoin: miter; stroke-miterlimit: 4; is-custom-font: none; font-file-url: none; fill: rgb(242,242,242); fill-rule: nonzero; opacity: 1;" transform=" translate(-212.6881, -453.0234)" d="M 199.791 465.282 L 199.156 459.639 L 199.446 459.217 C 200.781 457.236 201.46 455.31 201.471 453.474 C 201.471 453.185 201.46 452.895 201.449 452.595 C 201.393 451.415 201.326 449.958 202.094 448.255 C 202.517 447.309 203.719 445.105 205.533 445.372 C 206.023 445.439 206.39 445.662 206.668 445.929 C 206.713 445.862 206.746 445.795 206.802 445.729 C 207.369 444.872 207.814 444.504 208.237 444.148 C 208.571 443.881 208.905 443.592 209.439 442.935 C 209.673 442.646 209.851 442.39 210.007 442.167 C 210.474 441.522 211.086 440.743 212.155 440.754 C 213.301 440.81 213.902 441.756 214.302 442.39 C 215.015 443.514 215.337 444.326 215.549 444.861 C 215.627 445.061 215.716 445.272 215.76 445.35 C 216.128 445.896 219.143 445.384 220.279 445.206 C 222.827 444.783 225.031 444.415 225.943 446.018 C 226.589 447.164 226.11 448.689 224.463 450.659 C 223.951 451.271 223.406 451.738 222.916 452.105 C 223.317 452.35 223.673 452.717 223.818 453.285 C 224.163 454.654 222.983 456.023 220.323 457.358 C 219.667 457.692 218.776 458.137 217.53 458.36 C 216.94 458.46 216.417 458.482 215.961 458.493 C 215.961 458.749 215.894 459.039 215.727 459.328 C 215.26 460.185 214.291 460.597 212.822 460.496 C 211.209 460.407 209.884 460.107 208.716 459.84 C 207.692 459.606 206.813 459.406 206.123 459.45 C 204.843 459.55 203.853 460.585 202.695 461.91 L 199.802 465.293 L 199.791 465.282 Z" stroke-linecap="round"/>
</g>
		<g transform="matrix(1.0791 0 0 1.0791 -142.6935 172.0056)" id="767207" clip-path="url(#CLIPPATH_12)">
<clipPath id="CLIPPATH_12">
	<rect transform="matrix(1 0 0 1 135.5409 -159.3961)" id="clip0_735_424" x="-251.8155" y="-262.8775" rx="0" ry="0" width="503.631" height="525.755"/>
</clipPath>
<path style="stroke: none; stroke-width: 0; stroke-dasharray: none; stroke-linecap: butt; stroke-dashoffset: 0; stroke-linejoin: miter; stroke-miterlimit: 4; is-custom-font: none; font-file-url: none; fill: rgb(242,242,242); fill-rule: nonzero; opacity: 1;" transform=" translate(-189.2746, -422.2736)" d="M 202.718 431.695 L 197.42 433.732 L 196.931 433.565 C 194.683 432.775 192.635 432.608 190.865 433.064 C 190.587 433.142 190.309 433.22 190.02 433.309 C 188.896 433.665 187.493 434.099 185.657 433.788 C 184.633 433.621 182.196 433.009 182.007 431.195 C 181.951 430.705 182.074 430.293 182.252 429.959 C 182.174 429.937 182.107 429.915 182.029 429.881 C 181.061 429.559 180.594 429.214 180.137 428.891 C 179.792 428.646 179.436 428.379 178.657 428.034 C 178.312 427.878 178.023 427.767 177.778 427.678 C 177.032 427.389 176.12 426.999 175.864 425.953 C 175.63 424.829 176.387 424.005 176.899 423.46 C 177.8 422.492 178.501 421.969 178.969 421.624 C 179.136 421.501 179.325 421.357 179.381 421.301 C 179.815 420.8 178.557 418.018 178.09 416.972 C 177.032 414.613 176.12 412.576 177.444 411.285 C 178.39 410.362 179.982 410.451 182.307 411.541 C 183.031 411.886 183.621 412.298 184.099 412.665 C 184.233 412.22 184.489 411.775 185.012 411.486 C 186.247 410.807 187.872 411.597 189.842 413.834 C 190.331 414.39 190.988 415.136 191.511 416.282 C 191.756 416.827 191.912 417.328 192.045 417.762 C 192.301 417.707 192.59 417.695 192.913 417.762 C 193.859 417.996 194.505 418.831 194.783 420.277 C 195.106 421.858 195.15 423.215 195.183 424.417 C 195.217 425.463 195.25 426.365 195.473 427.021 C 195.896 428.234 197.142 428.935 198.722 429.714 L 202.729 431.662 L 202.718 431.695 Z" stroke-linecap="round"/>
</g>
		<g transform="matrix(1.0791 0 0 1.0791 -117.4272 151.0152)" id="638761" clip-path="url(#CLIPPATH_13)">
<clipPath id="CLIPPATH_13">
	<rect transform="matrix(1 0 0 1 112.1274 -139.9449)" id="clip0_735_424" x="-251.8155" y="-262.8775" rx="0" ry="0" width="503.631" height="525.755"/>
</clipPath>
<path style="stroke: none; stroke-width: 0; stroke-dasharray: none; stroke-linecap: butt; stroke-dashoffset: 0; stroke-linejoin: miter; stroke-miterlimit: 4; is-custom-font: none; font-file-url: none; fill: rgb(242,242,242); fill-rule: nonzero; opacity: 1;" transform=" translate(-212.6881, -402.8224)" d="M 199.791 415.081 L 199.156 409.438 L 199.446 409.015 C 200.781 407.035 201.46 405.109 201.471 403.273 C 201.471 402.984 201.46 402.694 201.449 402.394 C 201.393 401.214 201.326 399.756 202.094 398.054 C 202.517 397.108 203.719 394.904 205.533 395.171 C 206.023 395.238 206.39 395.461 206.668 395.728 C 206.713 395.661 206.746 395.594 206.802 395.527 C 207.369 394.67 207.814 394.303 208.237 393.947 C 208.571 393.68 208.905 393.391 209.439 392.734 C 209.673 392.445 209.851 392.189 210.007 391.966 C 210.474 391.321 211.086 390.542 212.155 390.553 C 213.301 390.608 213.902 391.554 214.302 392.189 C 215.015 393.313 215.337 394.125 215.549 394.659 C 215.627 394.86 215.716 395.071 215.76 395.149 C 216.128 395.694 219.143 395.182 220.279 395.004 C 222.827 394.581 225.031 394.214 225.943 395.817 C 226.589 396.963 226.11 398.488 224.463 400.457 C 223.951 401.069 223.406 401.537 222.916 401.904 C 223.317 402.149 223.673 402.516 223.818 403.084 C 224.163 404.453 222.983 405.821 220.323 407.157 C 219.667 407.491 218.776 407.936 217.53 408.159 C 216.94 408.259 216.417 408.281 215.961 408.292 C 215.961 408.548 215.894 408.837 215.727 409.127 C 215.26 409.984 214.291 410.395 212.822 410.295 C 211.209 410.206 209.884 409.906 208.716 409.639 C 207.692 409.405 206.813 409.205 206.123 409.249 C 204.843 409.349 203.853 410.384 202.695 411.709 L 199.802 415.092 L 199.791 415.081 Z" stroke-linecap="round"/>
</g>
		<g transform="matrix(1.0791 0 0 1.0791 -133.6957 210.4473)" id="26594" clip-path="url(#CLIPPATH_14)">
<clipPath id="CLIPPATH_14">
	<rect transform="matrix(1 0 0 1 127.203 -195.0205)" id="clip0_735_424" x="-251.8155" y="-262.8775" rx="0" ry="0" width="503.631" height="525.755"/>
</clipPath>
<path style="stroke: none; stroke-width: 0; stroke-dasharray: none; stroke-linecap: butt; stroke-dashoffset: 0; stroke-linejoin: miter; stroke-miterlimit: 4; is-custom-font: none; font-file-url: none; fill: rgb(242,242,242); fill-rule: nonzero; opacity: 1;" transform=" translate(-197.6125, -457.898)" d="M 205.565 524.565 L 204.385 523.819 L 203.005 523.975 C 202.983 523.841 202.905 523.552 202.794 523.096 C 202.182 520.57 200.301 512.902 198.732 500.816 C 197.641 492.38 197.018 483.7 196.884 475.031 C 196.751 466.339 197.163 459.762 197.496 454.476 C 197.741 450.492 198.053 446.697 198.342 442.991 C 199.132 433.109 199.878 423.772 199.322 413.444 C 199.199 411.141 198.943 406.333 196.139 401.225 C 194.514 398.265 192.266 395.627 189.473 393.413 L 191.209 391.231 C 194.291 393.691 196.773 396.607 198.576 399.89 C 201.681 405.554 201.97 410.785 202.104 413.3 C 202.671 423.816 201.915 433.242 201.113 443.214 C 200.824 446.897 200.512 450.681 200.268 454.654 C 199.945 459.896 199.533 466.406 199.655 474.986 C 199.778 483.555 200.39 492.125 201.469 500.46 C 203.016 512.39 204.875 519.958 205.476 522.439 C 205.799 523.764 205.865 524.042 205.531 524.565 H 205.565 Z" stroke-linecap="round"/>
</g>
		<g transform="matrix(1.0791 0 0 1.0791 -146.8191 132.5561)" id="154825" clip-path="url(#CLIPPATH_15)">
<clipPath id="CLIPPATH_15">
	<rect transform="matrix(1 0 0 1 139.3638 -122.8395)" id="clip0_735_424" x="-251.8155" y="-262.8775" rx="0" ry="0" width="503.631" height="525.755"/>
</clipPath>
<path style="stroke: none; stroke-width: 0; stroke-dasharray: none; stroke-linecap: butt; stroke-dashoffset: 0; stroke-linejoin: miter; stroke-miterlimit: 4; is-custom-font: none; font-file-url: none; fill: rgb(242,242,242); fill-rule: nonzero; opacity: 1;" transform=" translate(-185.4517, -385.717)" d="M 184.368 397.842 C 184.257 397.842 184.134 397.842 184.023 397.842 C 181.653 397.708 179.449 396.295 177.49 393.613 C 176.567 392.355 176.099 390.92 175.165 388.06 C 175.02 387.615 174.308 385.378 173.885 382.295 C 173.607 380.281 173.64 379.446 174.041 378.7 C 174.486 377.877 175.198 377.298 176.01 376.909 C 175.977 376.642 176.01 376.363 176.122 376.085 C 176.6 374.928 177.858 375.072 178.548 375.15 C 178.893 375.195 179.327 375.251 179.794 375.228 C 180.529 375.195 180.918 374.972 181.519 374.65 C 182.087 374.338 182.799 373.948 183.856 373.737 C 185.926 373.303 187.673 373.893 188.241 374.082 C 191.257 375.084 192.748 377.432 194.462 380.147 C 194.807 380.692 195.986 382.673 196.765 385.389 C 197.322 387.347 197.244 388.227 197.077 388.872 C 196.732 390.208 195.92 390.964 193.861 392.645 C 191.713 394.403 190.633 395.293 189.71 395.828 C 187.551 397.074 186.204 397.853 184.401 397.853 L 184.368 397.842 Z" stroke-linecap="round"/>
</g>
		<g transform="matrix(1.0791 0 0 1.0791 -1.204 262.041)" id="145063" clip-path="url(#CLIPPATH_16)">
<clipPath id="CLIPPATH_16">
	<rect transform="matrix(1 0 0 1 4.4275 -242.829)" id="clip0_735_424" x="-251.8155" y="-262.8775" rx="0" ry="0" width="503.631" height="525.755"/>
</clipPath>
<path style="stroke: none; stroke-width: 0; stroke-dasharray: none; stroke-linecap: butt; stroke-dashoffset: 0; stroke-linejoin: miter; stroke-miterlimit: 4; is-custom-font: none; font-file-url: none; fill: rgb(255,182,182); fill-rule: nonzero; opacity: 1;" transform=" translate(-320.388, -505.7065)" d="M 314.996 519.79 H 322.297 L 325.78 491.623 H 314.996 V 519.79 Z" stroke-linecap="round"/>
</g>
		<g transform="matrix(1.0791 0 0 1.0791 5.7447 275.0708)" id="651386" clip-path="url(#CLIPPATH_17)">
<clipPath id="CLIPPATH_17">
	<rect transform="matrix(1 0 0 1 -2.0119 -254.903)" id="clip0_735_424" x="-251.8155" y="-262.8775" rx="0" ry="0" width="503.631" height="525.755"/>
</clipPath>
<path style="stroke: none; stroke-width: 0; stroke-dasharray: none; stroke-linecap: butt; stroke-dashoffset: 0; stroke-linejoin: miter; stroke-miterlimit: 4; is-custom-font: none; font-file-url: none; fill: rgb(47,46,65); fill-rule: nonzero; opacity: 1;" transform=" translate(-326.8274, -517.7805)" d="M 340.013 519.622 C 340.235 520 340.358 521.236 340.358 521.692 C 340.358 523.061 339.245 524.174 337.876 524.174 H 315.263 C 314.328 524.174 313.571 523.417 313.571 522.482 V 521.536 C 313.571 521.536 312.447 518.709 314.751 515.215 C 314.751 515.215 317.611 517.942 321.895 513.668 L 323.153 511.387 L 332.29 518.064 L 337.353 518.687 C 338.466 518.821 339.445 518.665 340.013 519.622 Z" stroke-linecap="round"/>
</g>
		<g transform="matrix(1.0791 0 0 1.0791 -25.2235 262.041)" id="804475" clip-path="url(#CLIPPATH_18)">
<clipPath id="CLIPPATH_18">
	<rect transform="matrix(1 0 0 1 26.6855 -242.829)" id="clip0_735_424" x="-251.8155" y="-262.8775" rx="0" ry="0" width="503.631" height="525.755"/>
</clipPath>
<path style="stroke: none; stroke-width: 0; stroke-dasharray: none; stroke-linecap: butt; stroke-dashoffset: 0; stroke-linejoin: miter; stroke-miterlimit: 4; is-custom-font: none; font-file-url: none; fill: rgb(255,182,182); fill-rule: nonzero; opacity: 1;" transform=" translate(-298.13, -505.7065)" d="M 292.738 519.79 H 300.039 L 303.522 491.623 H 292.738 V 519.79 Z" stroke-linecap="round"/>
</g>
		<g transform="matrix(1.0791 0 0 1.0791 -18.2747 275.0708)" id="453151" clip-path="url(#CLIPPATH_19)">
<clipPath id="CLIPPATH_19">
	<rect transform="matrix(1 0 0 1 20.2461 -254.903)" id="clip0_735_424" x="-251.8155" y="-262.8775" rx="0" ry="0" width="503.631" height="525.755"/>
</clipPath>
<path style="stroke: none; stroke-width: 0; stroke-dasharray: none; stroke-linecap: butt; stroke-dashoffset: 0; stroke-linejoin: miter; stroke-miterlimit: 4; is-custom-font: none; font-file-url: none; fill: rgb(47,46,65); fill-rule: nonzero; opacity: 1;" transform=" translate(-304.5694, -517.7805)" d="M 317.755 519.622 C 317.978 520 318.1 521.236 318.1 521.692 C 318.1 523.061 316.987 524.174 315.618 524.174 H 293.005 C 292.07 524.174 291.313 523.417 291.313 522.482 V 521.536 C 291.313 521.536 290.189 518.709 292.493 515.215 C 292.493 515.215 295.353 517.942 299.638 513.668 L 300.895 511.387 L 310.032 518.064 L 315.095 518.687 C 316.208 518.821 317.188 518.665 317.755 519.622 Z" stroke-linecap="round"/>
</g>
		<g transform="matrix(1.0791 0 0 1.0791 -14.1327 205.3973)" id="924103" clip-path="url(#CLIPPATH_20)">
<clipPath id="CLIPPATH_20">
	<rect transform="matrix(1 0 0 1 16.4075 -190.3405)" id="clip0_735_424" x="-251.8155" y="-262.8775" rx="0" ry="0" width="503.631" height="525.755"/>
</clipPath>
<path style="stroke: none; stroke-width: 0; stroke-dasharray: none; stroke-linecap: butt; stroke-dashoffset: 0; stroke-linejoin: miter; stroke-miterlimit: 4; is-custom-font: none; font-file-url: none; fill: rgb(47,46,65); fill-rule: nonzero; opacity: 1;" transform=" translate(-308.408, -453.218)" d="M 323.431 398.131 L 331.222 428.301 L 327.326 505.768 L 308.964 507.003 L 307.851 462.399 L 305.625 508.305 L 286.707 504.377 L 285.594 403.384 L 323.431 398.131 Z" stroke-linecap="round"/>
</g>
		<g transform="matrix(1.0791 0 0 1.0791 -78.5044 48.8546)" id="722368" clip-path="url(#CLIPPATH_21)">
<clipPath id="CLIPPATH_21">
	<rect transform="matrix(1 0 0 1 76.0588 -45.2763)" id="clip0_735_424" x="-251.8155" y="-262.8775" rx="0" ry="0" width="503.631" height="525.755"/>
</clipPath>
<path style="stroke: none; stroke-width: 0; stroke-dasharray: none; stroke-linecap: butt; stroke-dashoffset: 0; stroke-linejoin: miter; stroke-miterlimit: 4; is-custom-font: none; font-file-url: none; fill: rgb(255,182,182); fill-rule: nonzero; opacity: 1;" transform=" translate(-248.7567, -308.1538)" d="M 248.023 296.569 C 245.508 292.162 241.201 289.881 238.386 291.483 C 235.581 293.086 235.337 297.96 237.852 302.367 C 238.831 304.148 240.222 305.661 241.914 306.785 L 252.798 325.337 L 261.4 320.04 L 249.759 302.311 C 249.648 300.286 249.058 298.316 248.023 296.569 Z" stroke-linecap="round"/>
</g>
		<g transform="matrix(1.0791 0 0 1.0791 -57.1031 79.9206)" id="95265" clip-path="url(#CLIPPATH_22)">
<clipPath id="CLIPPATH_22">
	<rect transform="matrix(1 0 0 1 56.2265 -74.0648)" id="clip0_735_424" x="-251.8155" y="-262.8775" rx="0" ry="0" width="503.631" height="525.755"/>
</clipPath>
<path style="stroke: none; stroke-width: 0; stroke-dasharray: none; stroke-linecap: butt; stroke-dashoffset: 0; stroke-linejoin: miter; stroke-miterlimit: 4; is-custom-font: none; font-file-url: none; fill: rgb(91,17,43); fill-rule: nonzero; opacity: 1;" transform=" translate(-268.589, -336.9423)" d="M 297.49 362.061 C 297.49 362.061 287.174 376.284 280.864 371.198 C 274.554 366.112 239.688 309 239.688 309 L 253.521 301.588 L 297.49 362.073 V 362.061 Z" stroke-linecap="round"/>
</g>
		<g transform="matrix(1.0791 0 0 1.0791 -21.9427 79.312)" id="93844" clip-path="url(#CLIPPATH_23)">
<clipPath id="CLIPPATH_23">
	<rect transform="matrix(1 0 0 1 23.645 -73.5)" id="clip0_735_424" x="-251.8155" y="-262.8775" rx="0" ry="0" width="503.631" height="525.755"/>
</clipPath>
<path style="stroke: none; stroke-width: 0; stroke-dasharray: none; stroke-linecap: butt; stroke-dashoffset: 0; stroke-linejoin: miter; stroke-miterlimit: 4; is-custom-font: none; font-file-url: none; fill: rgb(255,182,182); fill-rule: nonzero; opacity: 1;" transform=" translate(-301.1705, -336.3775)" d="M 287.816 344.724 L 301.171 324.692 L 314.525 330.257 L 311.187 348.063 L 287.816 344.724 Z" stroke-linecap="round"/>
</g>
		<g transform="matrix(1.0791 0 0 1.0791 -18.335 129.1492)" id="31563" clip-path="url(#CLIPPATH_24)">
<clipPath id="CLIPPATH_24">
	<rect transform="matrix(1 0 0 1 20.3015 -119.6835)" id="clip0_735_424" x="-251.8155" y="-262.8775" rx="0" ry="0" width="503.631" height="525.755"/>
</clipPath>
<path style="stroke: none; stroke-width: 0; stroke-dasharray: none; stroke-linecap: butt; stroke-dashoffset: 0; stroke-linejoin: miter; stroke-miterlimit: 4; is-custom-font: none; font-file-url: none; fill: rgb(91,17,43); fill-rule: nonzero; opacity: 1;" transform=" translate(-304.514, -382.561)" d="M 288.933 340.272 L 312.304 339.159 L 327.884 343.611 L 331.223 425.963 L 284.482 421.512 V 378.076 L 277.805 355.852 L 288.933 340.272 Z" stroke-linecap="round"/>
</g>
		<g transform="matrix(1.0791 0 0 1.0791 -21.6343 131.9955)" id="53521" clip-path="url(#CLIPPATH_25)">
<clipPath id="CLIPPATH_25">
	<rect transform="matrix(1 0 0 1 23.3588 -122.3212)" id="clip0_735_424" x="-251.8155" y="-262.8775" rx="0" ry="0" width="503.631" height="525.755"/>
</clipPath>
<path style="stroke: none; stroke-width: 0; stroke-dasharray: none; stroke-linecap: butt; stroke-dashoffset: 0; stroke-linejoin: miter; stroke-miterlimit: 4; is-custom-font: none; font-file-url: none; fill: rgb(63,61,86); fill-rule: nonzero; opacity: 1;" transform=" translate(-301.4567, -385.1987)" d="M 327.504 395.816 C 326.681 393.423 326.358 390.897 326.57 388.371 C 327.171 381.248 327.282 367.304 320.026 360.994 L 315.931 356.554 C 315.842 356.465 315.753 356.387 315.663 356.286 L 322.441 340.339 L 318.346 338.592 L 312.047 353.393 C 309.253 351.69 306.037 350.755 302.698 350.755 C 298.848 350.755 295.175 352.013 292.137 354.217 L 288.298 340.15 L 284.002 341.318 L 288.799 357.355 C 288.621 357.566 288.431 357.767 288.265 357.989 L 285.916 361.139 C 285.349 361.907 284.714 362.619 284.036 363.286 C 282.6 364.7 279.784 368.116 279.762 373.391 C 279.762 375.194 279.384 376.975 278.839 378.689 L 276.045 387.402 C 275.778 388.215 275.578 389.049 275.433 389.895 C 274.209 397.352 269.947 432.496 299.026 431.795 C 326.136 431.138 327.916 414.634 327.76 409.148 C 327.727 407.957 327.838 406.778 328.05 405.609 C 328.462 403.461 328.818 399.666 327.493 395.793 L 327.504 395.816 Z" stroke-linecap="round"/>
</g>
		<g transform="matrix(1.0791 0 0 1.0791 124.1541 -215.3638)" id="452049" clip-path="url(#CLIPPATH_26)">
<clipPath id="CLIPPATH_26">
	<rect transform="matrix(1 0 0 1 -111.738 199.5659)" id="clip0_735_424" x="-251.8155" y="-262.8775" rx="0" ry="0" width="503.631" height="525.755"/>
</clipPath>
<path style="stroke: none; stroke-width: 0; stroke-dasharray: none; stroke-linecap: butt; stroke-dashoffset: 0; stroke-linejoin: miter; stroke-miterlimit: 4; is-custom-font: none; font-file-url: none; fill: rgb(255,182,182); fill-rule: nonzero; opacity: 1;" transform=" translate(-436.5535, -63.3116)" d="M 449.953 40.0859 L 452.49 79.2146 L 420.617 86.5373 L 422.832 54.8872 L 449.953 40.0859 Z" stroke-linecap="round"/>
</g>
		<g transform="matrix(1.0791 0 0 1.0791 129.796 242.9388)" id="895456" clip-path="url(#CLIPPATH_27)">
<clipPath id="CLIPPATH_27">
	<rect transform="matrix(1 0 0 1 -116.966 -225.128)" id="clip0_735_424" x="-251.8155" y="-262.8775" rx="0" ry="0" width="503.631" height="525.755"/>
</clipPath>
<path style="stroke: none; stroke-width: 0; stroke-dasharray: none; stroke-linecap: butt; stroke-dashoffset: 0; stroke-linejoin: miter; stroke-miterlimit: 4; is-custom-font: none; font-file-url: none; fill: rgb(255,182,182); fill-rule: nonzero; opacity: 1;" transform=" translate(-441.7815, -488.0055)" d="M 452.376 515.716 H 438.009 L 431.176 460.295 H 452.387 L 452.376 515.716 Z" stroke-linecap="round"/>
</g>
		<g transform="matrix(1.0791 0 0 1.0791 116.1017 268.5726)" id="329933" clip-path="url(#CLIPPATH_28)">
<clipPath id="CLIPPATH_28">
	<rect transform="matrix(1 0 0 1 -104.2765 -248.8815)" id="clip0_735_424" x="-251.8155" y="-262.8775" rx="0" ry="0" width="503.631" height="525.755"/>
</clipPath>
<path style="stroke: none; stroke-width: 0; stroke-dasharray: none; stroke-linecap: butt; stroke-dashoffset: 0; stroke-linejoin: miter; stroke-miterlimit: 4; is-custom-font: none; font-file-url: none; fill: rgb(47,46,65); fill-rule: nonzero; opacity: 1;" transform=" translate(-429.092, -511.759)" d="M 403.155 515.393 C 402.71 516.15 402.477 518.576 402.477 519.455 C 402.477 522.148 404.658 524.329 407.351 524.329 H 451.844 C 453.68 524.329 455.171 522.838 455.171 521.002 V 519.154 C 455.171 519.154 457.375 513.59 452.845 506.724 C 452.845 506.724 447.214 512.099 438.801 503.685 L 436.319 499.189 L 418.357 512.332 L 408.397 513.557 C 406.216 513.824 404.291 513.512 403.167 515.404 L 403.155 515.393 Z" stroke-linecap="round"/>
</g>
		<g transform="matrix(1.0791 0 0 1.0791 171.8316 242.9388)" id="121468" clip-path="url(#CLIPPATH_29)">
<clipPath id="CLIPPATH_29">
	<rect transform="matrix(1 0 0 1 -155.919 -225.128)" id="clip0_735_424" x="-251.8155" y="-262.8775" rx="0" ry="0" width="503.631" height="525.755"/>
</clipPath>
<path style="stroke: none; stroke-width: 0; stroke-dasharray: none; stroke-linecap: butt; stroke-dashoffset: 0; stroke-linejoin: miter; stroke-miterlimit: 4; is-custom-font: none; font-file-url: none; fill: rgb(255,182,182); fill-rule: nonzero; opacity: 1;" transform=" translate(-480.7345, -488.0055)" d="M 491.329 515.716 H 476.962 L 470.129 460.295 H 491.34 L 491.329 515.716 Z" stroke-linecap="round"/>
</g>
		<g transform="matrix(1.0791 0 0 1.0791 158.1373 268.5726)" id="148427" clip-path="url(#CLIPPATH_30)">
<clipPath id="CLIPPATH_30">
	<rect transform="matrix(1 0 0 1 -143.2295 -248.8815)" id="clip0_735_424" x="-251.8155" y="-262.8775" rx="0" ry="0" width="503.631" height="525.755"/>
</clipPath>
<path style="stroke: none; stroke-width: 0; stroke-dasharray: none; stroke-linecap: butt; stroke-dashoffset: 0; stroke-linejoin: miter; stroke-miterlimit: 4; is-custom-font: none; font-file-url: none; fill: rgb(47,46,65); fill-rule: nonzero; opacity: 1;" transform=" translate(-468.045, -511.759)" d="M 442.109 515.393 C 441.663 516.15 441.43 518.576 441.43 519.455 C 441.43 522.148 443.611 524.329 446.304 524.329 H 490.797 C 492.633 524.329 494.124 522.838 494.124 521.002 V 519.154 C 494.124 519.154 496.328 513.59 491.798 506.724 C 491.798 506.724 486.167 512.099 477.754 503.685 L 475.272 499.189 L 457.31 512.332 L 447.35 513.557 C 445.169 513.824 443.244 513.512 442.12 515.404 L 442.109 515.393 Z" stroke-linecap="round"/>
</g>
		<g transform="matrix(1.0791 0 0 1.0791 147.5352 117.1372)" id="325944" clip-path="url(#CLIPPATH_31)">
<clipPath id="CLIPPATH_31">
	<rect transform="matrix(1 0 0 1 -133.4058 -108.555)" id="clip0_735_424" x="-251.8155" y="-262.8775" rx="0" ry="0" width="503.631" height="525.755"/>
</clipPath>
<path style="stroke: none; stroke-width: 0; stroke-dasharray: none; stroke-linecap: butt; stroke-dashoffset: 0; stroke-linejoin: miter; stroke-miterlimit: 4; is-custom-font: none; font-file-url: none; fill: rgb(47,46,65); fill-rule: nonzero; opacity: 1;" transform=" translate(-458.2213, -371.4325)" d="M 500.375 252.355 C 500.375 252.355 512.617 267.936 510.391 276.839 C 508.166 285.742 492.585 490.51 492.585 490.51 L 470.328 489.397 L 456.973 305.773 L 453.535 490.51 L 432.49 489.397 L 405.781 260.146 L 500.375 252.355 Z" stroke-linecap="round"/>
</g>
		<g transform="matrix(1.0791 0 0 1.0791 49.7734 23.199)" id="900872" clip-path="url(#CLIPPATH_32)">
<clipPath id="CLIPPATH_32">
	<rect transform="matrix(1 0 0 1 -42.8118 -21.5026)" id="clip0_735_424" x="-251.8155" y="-262.8775" rx="0" ry="0" width="503.631" height="525.755"/>
</clipPath>
<path style="stroke: none; stroke-width: 0; stroke-dasharray: none; stroke-linecap: butt; stroke-dashoffset: 0; stroke-linejoin: miter; stroke-miterlimit: 4; is-custom-font: none; font-file-url: none; fill: rgb(255,182,182); fill-rule: nonzero; opacity: 1;" transform=" translate(-367.6273, -284.3801)" d="M 371.697 302.023 C 369.593 310.091 363.728 315.544 358.587 314.198 C 353.445 312.851 350.997 305.228 353.112 297.159 C 353.913 293.921 355.471 290.927 357.663 288.423 L 367.011 254.358 L 382.903 259.088 L 371.997 292.163 C 372.687 295.423 372.587 298.807 371.697 302.012 V 302.023 Z" stroke-linecap="round"/>
</g>
		<g transform="matrix(1.0791 0 0 1.0791 110.6799 -239.6955)" id="919737" clip-path="url(#CLIPPATH_33)">
<clipPath id="CLIPPATH_33">
	<rect transform="matrix(1 0 0 1 -99.2525 222.113)" id="clip0_735_424" x="-251.8155" y="-262.8775" rx="0" ry="0" width="503.631" height="525.755"/>
</clipPath>
<path style="stroke: none; stroke-width: 0; stroke-dasharray: none; stroke-linecap: butt; stroke-dashoffset: 0; stroke-linejoin: miter; stroke-miterlimit: 4; is-custom-font: none; font-file-url: none; fill: rgb(255,182,182); fill-rule: nonzero; opacity: 1;" transform=" translate(-424.068, -40.7645)" d="M 424.068 72.5593 C 441.628 72.5593 455.863 58.3243 455.863 40.7645 C 455.863 23.2047 441.628 8.96973 424.068 8.96973 C 406.508 8.96973 392.273 23.2047 392.273 40.7645 C 392.273 58.3243 406.508 72.5593 424.068 72.5593 Z" stroke-linecap="round"/>
</g>
		<g transform="matrix(1.0791 0 0 1.0791 144.3897 -102.6335)" id="934677" clip-path="url(#CLIPPATH_34)">
<clipPath id="CLIPPATH_34">
	<rect transform="matrix(1 0 0 1 -130.491 95.1001)" id="clip0_735_424" x="-251.8155" y="-262.8775" rx="0" ry="0" width="503.631" height="525.755"/>
</clipPath>
<path style="stroke: none; stroke-width: 0; stroke-dasharray: none; stroke-linecap: butt; stroke-dashoffset: 0; stroke-linejoin: miter; stroke-miterlimit: 4; is-custom-font: none; font-file-url: none; fill: rgb(230,230,230); fill-rule: nonzero; opacity: 1;" transform=" translate(-455.3065, -167.7774)" d="M 420.251 80.9731 L 453.637 74.2959 L 490.362 93.2147 L 498.152 214.518 L 508.168 260.146 L 404.671 261.259 L 409.123 200.051 L 402.445 103.231 L 420.251 80.9731 Z" stroke-linecap="round"/>
</g>
		<g transform="matrix(1.0791 0 0 1.0791 69.9313 -74.643)" id="149018" clip-path="url(#CLIPPATH_35)">
<clipPath id="CLIPPATH_35">
	<rect transform="matrix(1 0 0 1 -61.492 69.1623)" id="clip0_735_424" x="-251.8155" y="-262.8775" rx="0" ry="0" width="503.631" height="525.755"/>
</clipPath>
<path style="stroke: none; stroke-width: 0; stroke-dasharray: none; stroke-linecap: butt; stroke-dashoffset: 0; stroke-linejoin: miter; stroke-miterlimit: 4; is-custom-font: none; font-file-url: none; fill: rgb(230,230,230); fill-rule: nonzero; opacity: 1;" transform=" translate(-386.3075, -193.7152)" d="M 412.46 106.569 C 412.46 106.569 394.654 101.004 387.977 111.02 C 381.3 121.036 369.058 211.179 369.058 211.179 L 356.816 279.064 L 379.074 282.403 L 415.799 163.325 L 412.46 106.569 Z" stroke-linecap="round"/>
</g>
		<g transform="matrix(1.0791 0 0 1.0791 255.5387 -11.4804)" id="369004" clip-path="url(#CLIPPATH_36)">
<clipPath id="CLIPPATH_36">
	<rect transform="matrix(1 0 0 1 -233.4879 10.6337)" id="clip0_735_424" x="-251.8155" y="-262.8775" rx="0" ry="0" width="503.631" height="525.755"/>
</clipPath>
<path style="stroke: none; stroke-width: 0; stroke-dasharray: none; stroke-linecap: butt; stroke-dashoffset: 0; stroke-linejoin: miter; stroke-miterlimit: 4; is-custom-font: none; font-file-url: none; fill: rgb(255,182,182); fill-rule: nonzero; opacity: 1;" transform=" translate(-558.3034, -252.2438)" d="M 574.431 263.017 C 578.058 270.517 577.124 278.474 572.349 280.789 C 567.575 283.104 560.764 278.886 557.136 271.374 C 555.645 268.392 554.888 265.098 554.933 261.77 L 539.965 229.775 L 555.133 223.064 L 568.276 255.316 C 570.914 257.352 573.028 259.99 574.431 263.005 V 263.017 Z" stroke-linecap="round"/>
</g>
		<g transform="matrix(1.0791 0 0 1.0791 218.3081 -96.468)" id="134150" clip-path="url(#CLIPPATH_37)">
<clipPath id="CLIPPATH_37">
	<rect transform="matrix(1 0 0 1 -198.9885 89.387)" id="clip0_735_424" x="-251.8155" y="-262.8775" rx="0" ry="0" width="503.631" height="525.755"/>
</clipPath>
<path style="stroke: none; stroke-width: 0; stroke-dasharray: none; stroke-linecap: butt; stroke-dashoffset: 0; stroke-linejoin: miter; stroke-miterlimit: 4; is-custom-font: none; font-file-url: none; fill: rgb(230,230,230); fill-rule: nonzero; opacity: 1;" transform=" translate(-523.804, -173.4905)" d="M 476.429 94.3607 C 476.429 94.3607 492.421 84.7566 501.268 92.9139 C 510.116 101.071 543.279 185.783 543.279 185.783 L 571.19 248.861 L 550.346 257.352 L 486.567 150.294 L 476.418 94.3495 L 476.429 94.3607 Z" stroke-linecap="round"/>
</g>
		<g transform="matrix(1.0791 0 0 1.0791 -8.9727 282.2462)" id="130399" clip-path="url(#CLIPPATH_38)">
<clipPath id="CLIPPATH_38">
	<rect transform="matrix(1 0 0 1 11.6185 -261.552)" id="clip0_735_424" x="-251.8155" y="-262.8775" rx="0" ry="0" width="503.631" height="525.755"/>
</clipPath>
<path style="stroke: none; stroke-width: 0; stroke-dasharray: none; stroke-linecap: butt; stroke-dashoffset: 0; stroke-linejoin: miter; stroke-miterlimit: 4; is-custom-font: none; font-file-url: none; fill: rgb(63,61,86); fill-rule: nonzero; opacity: 1;" transform=" translate(-313.197, -524.4295)" d="M 553.394 524.43 C 553.394 525.164 552.804 525.754 552.07 525.754 H 74.3243 C 73.5898 525.754 73 525.164 73 524.43 C 73 524.074 73.1335 523.762 73.3561 523.528 H 173.203 C 175.329 523.528 177.41 523.384 179.457 523.105 H 552.07 C 552.804 523.105 553.394 523.695 553.394 524.43 Z" stroke-linecap="round"/>
</g>
		<g transform="matrix(1.0791 0 0 1.0791 39.8437 58.2483)" id="160203" clip-path="url(#CLIPPATH_39)">
<clipPath id="CLIPPATH_39">
	<rect transform="matrix(1 0 0 1 -33.6103 -53.9812)" id="clip0_735_424" x="-251.8155" y="-262.8775" rx="0" ry="0" width="503.631" height="525.755"/>
</clipPath>
<path style="stroke: none; stroke-width: 0; stroke-dasharray: none; stroke-linecap: butt; stroke-dashoffset: 0; stroke-linejoin: miter; stroke-miterlimit: 4; is-custom-font: none; font-file-url: none; fill: rgb(255,182,182); fill-rule: nonzero; opacity: 1;" transform=" translate(-358.4258, -316.8587)" d="M 357.783 305.528 C 359.764 300.854 363.793 298.094 366.764 299.363 C 369.736 300.632 370.537 305.439 368.545 310.114 C 367.777 311.994 366.575 313.652 365.028 314.977 L 356.359 334.663 L 347.211 330.401 L 356.726 311.449 C 356.604 309.424 356.96 307.398 357.783 305.54 V 305.528 Z" stroke-linecap="round"/>
</g>
		<g transform="matrix(1.0791 0 0 1.0791 -23.2977 60.5644)" id="82416" clip-path="url(#CLIPPATH_40)">
<clipPath id="CLIPPATH_40">
	<rect transform="matrix(1 0 0 1 24.9005 -56.1275)" id="clip0_735_424" x="-251.8155" y="-262.8775" rx="0" ry="0" width="503.631" height="525.755"/>
</clipPath>
<path style="stroke: none; stroke-width: 0; stroke-dasharray: none; stroke-linecap: butt; stroke-dashoffset: 0; stroke-linejoin: miter; stroke-miterlimit: 4; is-custom-font: none; font-file-url: none; fill: rgb(255,182,182); fill-rule: nonzero; opacity: 1;" transform=" translate(-299.915, -319.005)" d="M 299.915 339.471 C 311.218 339.471 320.381 330.308 320.381 319.005 C 320.381 307.702 311.218 298.539 299.915 298.539 C 288.612 298.539 279.449 307.702 279.449 319.005 C 279.449 330.308 288.612 339.471 299.915 339.471 Z" stroke-linecap="round"/>
</g>
		<g transform="matrix(1.0791 0 0 1.0791 26.6982 80.6977)" id="904319" clip-path="url(#CLIPPATH_41)">
<clipPath id="CLIPPATH_41">
	<rect transform="matrix(1 0 0 1 -21.429 -74.7845)" id="clip0_735_424" x="-251.8155" y="-262.8775" rx="0" ry="0" width="503.631" height="525.755"/>
</clipPath>
<path style="stroke: none; stroke-width: 0; stroke-dasharray: none; stroke-linecap: butt; stroke-dashoffset: 0; stroke-linejoin: miter; stroke-miterlimit: 4; is-custom-font: none; font-file-url: none; fill: rgb(91,17,43); fill-rule: nonzero; opacity: 1;" transform=" translate(-346.2445, -337.662)" d="M 325.656 343.611 L 345.688 335.821 L 352.365 312.45 L 366.833 318.015 L 355.704 351.401 L 325.656 362.874 V 343.611 Z" stroke-linecap="round"/>
</g>
		<g transform="matrix(1.0791 0 0 1.0791 -25.1113 59.7475)" id="672738" clip-path="url(#CLIPPATH_42)">
<clipPath id="CLIPPATH_42">
	<rect transform="matrix(1 0 0 1 26.581 -55.3706)" id="clip0_735_424" x="-251.8155" y="-262.8775" rx="0" ry="0" width="503.631" height="525.755"/>
</clipPath>
<path style="stroke: none; stroke-width: 0; stroke-dasharray: none; stroke-linecap: butt; stroke-dashoffset: 0; stroke-linejoin: miter; stroke-miterlimit: 4; is-custom-font: none; font-file-url: none; fill: rgb(47,46,65); fill-rule: nonzero; opacity: 1;" transform=" translate(-298.2345, -318.2481)" d="M 297.22 341.763 L 309.428 331.825 C 309.428 331.825 308.271 316.935 312.667 315.599 C 317.063 314.264 321.637 308.911 321.637 308.911 C 321.637 308.911 314.37 292.507 301.583 294.989 C 288.796 297.482 291.712 293.687 283.832 297.86 C 275.953 302.034 274.106 307.598 275.063 313.518 C 276.02 319.439 273.171 334.129 282.708 334.886 C 292.246 335.642 297.22 341.741 297.22 341.741 V 341.763 Z" stroke-linecap="round"/>
</g>
		<g transform="matrix(1.0791 0 0 1.0791 106.1895 -246.5447)" id="29142" clip-path="url(#CLIPPATH_43)">
<clipPath id="CLIPPATH_43">
	<rect transform="matrix(1 0 0 1 -95.0918 228.4598)" id="clip0_735_424" x="-251.8155" y="-262.8775" rx="0" ry="0" width="503.631" height="525.755"/>
</clipPath>
<path style="stroke: none; stroke-width: 0; stroke-dasharray: none; stroke-linecap: butt; stroke-dashoffset: 0; stroke-linejoin: miter; stroke-miterlimit: 4; is-custom-font: none; font-file-url: none; fill: rgb(47,46,65); fill-rule: nonzero; opacity: 1;" transform=" translate(-419.9073, -34.4177)" d="M 404.805 47.8757 C 402.479 43.6468 403.692 41.6214 401.6 39.9743 C 401.6 39.9743 400.754 39.3066 394.411 38.4608 C 393.81 28.0777 392.129 26.6978 392.129 26.6978 C 390.193 25.0952 387.11 25.3178 385.141 26.0523 C 380.99 27.588 381.134 31.6389 378.374 32.1842 C 374.568 32.941 384.951 26.4307 384.829 19.542 C 384.729 13.922 388.757 8.79162 390.16 9.19225 C 391.551 9.59289 395.279 5.54203 397.104 5.75348 C 398.35 5.89815 403.625 4.0953 404.983 4.37351 C 406.463 4.68512 411.193 7.65649 411.449 7.0778 C 413.207 3.10484 412.873 1.93632 414.186 0.856834 C 416.501 -1.04618 419.907 0.678775 425.36 1.89181 C 436.589 4.39577 438.87 0.81232 444.479 3.80595 C 447.317 5.31946 449.498 8.98081 453.749 16.2256 C 459.692 26.3528 462.663 31.4275 462.24 37.0252 C 461.806 42.7343 459.069 42.1556 457.188 50.5021 C 455.085 59.7946 457.611 64.324 454.228 67.1284 C 451.612 69.2985 429.945 69.4655 427.53 67.1841 C 423.379 63.2779 429.867 55.1873 425.46 48.5323 C 422.756 44.4481 416.835 42.2557 413.908 43.9362 C 410.603 45.828 411.827 52.2716 409.568 52.6945 C 407.643 53.0506 405.206 48.6213 404.805 47.8869 V 47.8757 Z" stroke-linecap="round"/>
</g>
		<g transform="matrix(1.0791 0 0 1.0791 -136.0633 -32.9877)" id="384120" clip-path="url(#CLIPPATH_44)">
<clipPath id="CLIPPATH_44">
	<rect transform="matrix(1 0 0 1 129.3953 30.5622)" id="clip0_735_424" x="-251.8155" y="-262.8775" rx="0" ry="0" width="503.631" height="525.755"/>
</clipPath>
<path style="stroke: none; stroke-width: 0; stroke-dasharray: none; stroke-linecap: butt; stroke-dashoffset: 0; stroke-linejoin: miter; stroke-miterlimit: 4; is-custom-font: none; font-file-url: none; fill: rgb(255,182,182); fill-rule: nonzero; opacity: 1;" transform=" translate(-195.4202, -232.3153)" d="M 250.685 306.574 C 255.114 302.834 253.935 294.154 248.059 287.199 C 245.488 284.149 242.439 281.935 239.445 280.722 L 236.018 276.76 L 191.692 221.227 C 191.692 221.227 167.142 165.984 159.897 160.019 C 152.652 154.054 144.128 157.159 144.128 157.159 L 137.473 165.383 L 178.916 242.517 L 221.339 285.207 L 227.07 291.172 C 227.771 294.321 229.441 297.693 232.011 300.742 C 237.887 307.698 246.245 310.313 250.674 306.574 H 250.685 Z" stroke-linecap="round"/>
</g>
		<g transform="matrix(1.0791 0 0 1.0791 -166.6268 -73.0464)" id="141830" clip-path="url(#CLIPPATH_45)">
<clipPath id="CLIPPATH_45">
	<rect transform="matrix(1 0 0 1 157.7185 67.685)" id="clip0_735_424" x="-251.8155" y="-262.8775" rx="0" ry="0" width="503.631" height="525.755"/>
</clipPath>
<path style="stroke: none; stroke-width: 0; stroke-dasharray: none; stroke-linecap: butt; stroke-dashoffset: 0; stroke-linejoin: miter; stroke-miterlimit: 4; is-custom-font: none; font-file-url: none; fill: rgb(230,230,230); fill-rule: nonzero; opacity: 1;" transform=" translate(-167.097, -195.1925)" d="M 167.019 170.292 L 178.126 186.573 L 194.073 210.177 L 165.428 220.093 L 140.121 176.68 L 167.019 170.292 Z" stroke-linecap="round"/>
</g>
		<g transform="matrix(1.0791 0 0 1.0791 -175.4371 -147.2649)" id="893023" clip-path="url(#CLIPPATH_46)">
<clipPath id="CLIPPATH_46">
	<rect transform="matrix(1 0 0 1 165.883 136.461)" id="clip0_735_424" x="-251.8155" y="-262.8775" rx="0" ry="0" width="503.631" height="525.755"/>
</clipPath>
<path style="stroke: none; stroke-width: 0; stroke-dasharray: none; stroke-linecap: butt; stroke-dashoffset: 0; stroke-linejoin: miter; stroke-miterlimit: 4; is-custom-font: none; font-file-url: none; fill: rgb(255,182,182); fill-rule: nonzero; opacity: 1;" transform=" translate(-158.9325, -126.4165)" d="M 178.291 114.849 L 170.245 145.519 L 139.574 139.488 C 139.574 139.488 151.638 117.364 148.622 107.314 C 148.622 107.314 178.291 114.86 178.28 114.86 L 178.291 114.849 Z" stroke-linecap="round"/>
</g>
		<g transform="matrix(1.0791 0 0 1.0791 -174.7759 232.6214)" id="696676" clip-path="url(#CLIPPATH_47)">
<clipPath id="CLIPPATH_47">
	<rect transform="matrix(1 0 0 1 165.2705 -215.5675)" id="clip0_735_424" x="-251.8155" y="-262.8775" rx="0" ry="0" width="503.631" height="525.755"/>
</clipPath>
<path style="stroke: none; stroke-width: 0; stroke-dasharray: none; stroke-linecap: butt; stroke-dashoffset: 0; stroke-linejoin: miter; stroke-miterlimit: 4; is-custom-font: none; font-file-url: none; fill: rgb(255,182,182); fill-rule: nonzero; opacity: 1;" transform=" translate(-159.545, -478.445)" d="M 145.918 514.068 H 164.392 L 173.172 442.822 L 145.918 442.833 V 514.068 Z" stroke-linecap="round"/>
</g>
		<g transform="matrix(1.0791 0 0 1.0791 -157.162 265.5638)" id="166328" clip-path="url(#CLIPPATH_48)">
<clipPath id="CLIPPATH_48">
	<rect transform="matrix(1 0 0 1 148.9475 -246.0935)" id="clip0_735_424" x="-251.8155" y="-262.8775" rx="0" ry="0" width="503.631" height="525.755"/>
</clipPath>
<path style="stroke: none; stroke-width: 0; stroke-dasharray: none; stroke-linecap: butt; stroke-dashoffset: 0; stroke-linejoin: miter; stroke-miterlimit: 4; is-custom-font: none; font-file-url: none; fill: rgb(47,46,65); fill-rule: nonzero; opacity: 1;" transform=" translate(-175.868, -508.971)" d="M 209.197 513.645 C 209.775 514.614 210.076 517.741 210.076 518.865 C 210.076 522.326 207.271 525.13 203.81 525.13 H 146.62 C 144.261 525.13 142.346 523.216 142.346 520.857 V 518.475 C 142.346 518.475 139.52 511.32 145.34 502.495 C 145.34 502.495 152.585 509.405 163.402 498.588 L 166.596 492.812 L 189.688 509.706 L 202.486 511.286 C 205.291 511.631 207.772 511.231 209.208 513.657 L 209.197 513.645 Z" stroke-linecap="round"/>
</g>
		<g transform="matrix(1.0791 0 0 1.0791 -169.8527 119.7232)" id="38067" clip-path="url(#CLIPPATH_49)">
<clipPath id="CLIPPATH_49">
	<rect transform="matrix(1 0 0 1 160.7077 -110.9511)" id="clip0_735_424" x="-251.8155" y="-262.8775" rx="0" ry="0" width="503.631" height="525.755"/>
</clipPath>
<path style="stroke: none; stroke-width: 0; stroke-dasharray: none; stroke-linecap: butt; stroke-dashoffset: 0; stroke-linejoin: miter; stroke-miterlimit: 4; is-custom-font: none; font-file-url: none; fill: rgb(47,46,65); fill-rule: nonzero; opacity: 1;" transform=" translate(-164.1078, -373.8286)" d="M 197.2 307.91 L 171.748 481.084 H 139.82 L 144.071 382.228 L 146.308 330.245 L 139.831 305.506 C 139.831 305.506 136.882 300.008 134.389 293.342 C 131.585 285.819 129.37 276.805 132.653 272.521 C 133.866 270.94 137.016 269.772 141.289 268.904 C 143.904 268.37 146.942 267.958 150.225 267.635 C 169.111 265.765 195.964 266.934 195.964 266.934 L 196.643 289.47 L 197.022 302.056 L 197.2 307.91 Z" stroke-linecap="round"/>
</g>
		<g transform="matrix(1.0791 0 0 1.0791 -204.4475 225.3458)" id="238429" clip-path="url(#CLIPPATH_50)">
<clipPath id="CLIPPATH_50">
	<rect transform="matrix(1 0 0 1 192.766 -208.8255)" id="clip0_735_424" x="-251.8155" y="-262.8775" rx="0" ry="0" width="503.631" height="525.755"/>
</clipPath>
<path style="stroke: none; stroke-width: 0; stroke-dasharray: none; stroke-linecap: butt; stroke-dashoffset: 0; stroke-linejoin: miter; stroke-miterlimit: 4; is-custom-font: none; font-file-url: none; fill: rgb(255,182,182); fill-rule: nonzero; opacity: 1;" transform=" translate(-132.0495, -471.703)" d="M 113.387 505.601 L 131.66 508.283 L 150.712 439.085 L 123.748 435.123 L 113.387 505.601 Z" stroke-linecap="round"/>
</g>
		<g transform="matrix(1.0791 0 0 1.0791 -193.093 262.6908)" id="187272" clip-path="url(#CLIPPATH_51)">
<clipPath id="CLIPPATH_51">
	<rect transform="matrix(1 0 0 1 182.2437 -243.4313)" id="clip0_735_424" x="-251.8155" y="-262.8775" rx="0" ry="0" width="503.631" height="525.755"/>
</clipPath>
<path style="stroke: none; stroke-width: 0; stroke-dasharray: none; stroke-linecap: butt; stroke-dashoffset: 0; stroke-linejoin: miter; stroke-miterlimit: 4; is-custom-font: none; font-file-url: none; fill: rgb(47,46,65); fill-rule: nonzero; opacity: 1;" transform=" translate(-142.5718, -506.3088)" d="M 176.054 514.393 C 176.477 515.439 176.332 518.566 176.166 519.69 C 175.665 523.117 172.482 525.488 169.054 524.976 L 112.465 516.652 C 110.128 516.307 108.514 514.137 108.859 511.8 L 109.204 509.44 C 109.204 509.44 107.446 501.951 114.49 494.071 C 114.49 494.071 120.644 501.962 132.93 492.825 L 136.926 487.572 L 157.313 507.637 L 169.744 511.054 C 172.46 511.8 174.975 511.766 176.054 514.381 V 514.393 Z" stroke-linecap="round"/>
</g>
		<g transform="matrix(1.0791 0 0 1.0791 -179.8165 115.0371)" id="394869" clip-path="url(#CLIPPATH_52)">
<clipPath id="CLIPPATH_52">
	<rect transform="matrix(1 0 0 1 169.9405 -106.6086)" id="clip0_735_424" x="-251.8155" y="-262.8775" rx="0" ry="0" width="503.631" height="525.755"/>
</clipPath>
<path style="stroke: none; stroke-width: 0; stroke-dasharray: none; stroke-linecap: butt; stroke-dashoffset: 0; stroke-linejoin: miter; stroke-miterlimit: 4; is-custom-font: none; font-file-url: none; fill: rgb(47,46,65); fill-rule: nonzero; opacity: 1;" transform=" translate(-154.875, -369.4861)" d="M 197.598 279.02 L 194.104 309.079 L 175.062 372.423 L 143.724 476.711 L 112.141 472.07 L 140.486 323.78 L 137.681 298.351 C 137.681 298.351 136.769 295.824 135.722 292.118 C 133.641 284.796 131.037 272.877 133.908 266.801 C 134.298 265.977 134.788 265.254 135.389 264.675 C 136.513 263.584 138.816 262.917 141.888 262.561 C 154.73 261.114 181.194 265.265 192.969 267.301 L 197.609 279.009 L 197.598 279.02 Z" stroke-linecap="round"/>
</g>
		<g transform="matrix(1.0791 0 0 1.0791 -165.3981 -64.5212)" id="95000" clip-path="url(#CLIPPATH_53)">
<clipPath id="CLIPPATH_53">
	<rect transform="matrix(1 0 0 1 156.5795 59.7835)" id="clip0_735_424" x="-251.8155" y="-262.8775" rx="0" ry="0" width="503.631" height="525.755"/>
</clipPath>
<path style="stroke: none; stroke-width: 0; stroke-dasharray: none; stroke-linecap: butt; stroke-dashoffset: 0; stroke-linejoin: miter; stroke-miterlimit: 4; is-custom-font: none; font-file-url: none; fill: rgb(230,230,230); fill-rule: nonzero; opacity: 1;" transform=" translate(-168.236, -203.094)" d="M 173.271 136.472 L 207.96 180.208 L 201.728 225.813 L 196.386 272.22 L 133.542 262.672 C 133.542 262.672 147.119 229.986 148.621 228.484 C 150.124 226.982 153.919 230.699 151.27 225.824 C 148.621 220.95 145.605 220.95 148.121 218.435 C 150.636 215.92 128.512 183.246 128.512 165.64 C 128.512 148.034 139.073 133.968 139.073 133.968 L 173.26 136.483 L 173.271 136.472 Z" stroke-linecap="round"/>
</g>
		<g transform="matrix(1.0791 0 0 1.0791 -168.705 -178.711)" id="536199" clip-path="url(#CLIPPATH_54)">
<clipPath id="CLIPPATH_54">
	<rect transform="matrix(1 0 0 1 159.6445 165.6009)" id="clip0_735_424" x="-251.8155" y="-262.8775" rx="0" ry="0" width="503.631" height="525.755"/>
</clipPath>
<path style="stroke: none; stroke-width: 0; stroke-dasharray: none; stroke-linecap: butt; stroke-dashoffset: 0; stroke-linejoin: miter; stroke-miterlimit: 4; is-custom-font: none; font-file-url: none; fill: rgb(255,182,182); fill-rule: nonzero; opacity: 1;" transform=" translate(-165.171, -97.2766)" d="M 165.171 120.647 C 178.078 120.647 188.541 110.184 188.541 97.2766 C 188.541 84.3695 178.078 73.9062 165.171 73.9062 C 152.264 73.9062 141.801 84.3695 141.801 97.2766 C 141.801 110.184 152.264 120.647 165.171 120.647 Z" stroke-linecap="round"/>
</g>
		<g transform="matrix(1.0791 0 0 1.0791 -181.4891 -168.2573)" id="428887" clip-path="url(#CLIPPATH_55)">
<clipPath id="CLIPPATH_55">
	<rect transform="matrix(1 0 0 1 171.4905 155.913)" id="clip0_735_424" x="-251.8155" y="-262.8775" rx="0" ry="0" width="503.631" height="525.755"/>
</clipPath>
<path style="stroke: none; stroke-width: 0; stroke-dasharray: none; stroke-linecap: butt; stroke-dashoffset: 0; stroke-linejoin: miter; stroke-miterlimit: 4; is-custom-font: none; font-file-url: none; fill: rgb(47,46,65); fill-rule: nonzero; opacity: 1;" transform=" translate(-153.325, -106.9645)" d="M 164.078 141.958 C 164.078 141.958 167.573 114.292 168.196 106.246 C 168.819 98.1998 180.17 85.6354 180.17 85.6354 L 188.216 92.1346 C 188.216 92.1346 195.027 92.1346 190.387 82.23 C 185.746 72.3254 177.077 70.7786 177.077 70.7786 C 177.077 70.7786 176.153 57.7802 160.05 59.3271 C 143.957 60.874 136.835 73.8723 136.835 73.8723 C 136.835 73.8723 135.911 57.4686 125.695 69.5433 C 115.479 81.6179 109.603 86.5702 120.431 90.5877 C 131.26 94.6163 139.306 91.5114 139.306 91.5114 C 139.306 91.5114 128.778 93.6815 130.636 101.104 C 132.495 108.527 106.187 142.27 118.261 145.975 C 130.336 149.692 157.256 158.662 160.35 152.786 C 163.444 146.91 164.067 141.958 164.067 141.958 H 164.078 Z" stroke-linecap="round"/>
</g>
		<g transform="matrix(1.0791 0 0 1.0791 -124.8771 -30.9616)" id="200784" clip-path="url(#CLIPPATH_56)">
<clipPath id="CLIPPATH_56">
	<rect transform="matrix(1 0 0 1 119.0294 28.6847)" id="clip0_735_424" x="-251.8155" y="-262.8775" rx="0" ry="0" width="503.631" height="525.755"/>
</clipPath>
<path style="stroke: none; stroke-width: 0; stroke-dasharray: none; stroke-linecap: butt; stroke-dashoffset: 0; stroke-linejoin: miter; stroke-miterlimit: 4; is-custom-font: none; font-file-url: none; fill: rgb(255,182,182); fill-rule: nonzero; opacity: 1;" transform=" translate(-205.7861, -234.1928)" d="M 260.421 308.889 C 264.883 305.183 263.782 296.503 257.961 289.492 C 255.413 286.42 252.386 284.183 249.403 282.948 L 246.009 278.953 L 202.151 223.053 C 202.151 223.053 178.068 167.61 170.879 161.578 C 163.679 155.546 155.132 158.584 155.132 158.584 L 148.41 166.753 L 189.208 244.231 L 231.264 287.277 L 236.939 293.298 C 237.607 296.447 239.254 299.841 241.802 302.913 C 247.623 309.924 255.958 312.606 260.421 308.9 V 308.889 Z" stroke-linecap="round"/>
</g>
		<g transform="matrix(1.0791 0 0 1.0791 -163.7137 -82.7028)" id="970858" clip-path="url(#CLIPPATH_57)">
<clipPath id="CLIPPATH_57">
	<rect transform="matrix(1 0 0 1 155.0192 76.633)" id="clip0_735_424" x="-251.8155" y="-262.8775" rx="0" ry="0" width="503.631" height="525.755"/>
</clipPath>
<path style="stroke: none; stroke-width: 0; stroke-dasharray: none; stroke-linecap: butt; stroke-dashoffset: 0; stroke-linejoin: miter; stroke-miterlimit: 4; is-custom-font: none; font-file-url: none; fill: rgb(230,230,230); fill-rule: nonzero; opacity: 1;" transform=" translate(-169.7963, -186.2445)" d="M 145.863 154.288 C 145.863 154.288 156.603 209.999 168.811 218.212 L 193.16 199.226 C 193.16 199.226 195.286 199.137 191.324 194.652 C 187.362 190.179 188.375 180.552 188.375 180.552 C 188.375 180.552 190.156 182.856 186.272 179.651 C 182.388 176.446 186.005 154.411 186.005 154.411 L 145.863 154.277 V 154.288 Z" stroke-linecap="round"/>
</g>
		<g transform="matrix(1.0791 0 0 1.0791 -20.9812 118.103)" id="257767" clip-path="url(#CLIPPATH_58)">
<clipPath id="CLIPPATH_58">
	<rect transform="matrix(1 0 0 1 22.7538 -109.4464)" id="clip0_735_424" x="-251.8155" y="-262.8775" rx="0" ry="0" width="503.631" height="525.755"/>
</clipPath>
<path style="stroke: none; stroke-width: 0; stroke-dasharray: none; stroke-linecap: butt; stroke-dashoffset: 0; stroke-linejoin: miter; stroke-miterlimit: 4; is-custom-font: none; font-file-url: none; fill: rgb(255,182,182); fill-rule: nonzero; opacity: 1;" transform=" translate(-302.0617, -372.3239)" d="M 323.163 384.142 C 322.651 384.142 322.183 383.786 322.072 383.263 L 320.848 377.576 C 319.045 369.218 311.823 363.108 303.287 362.73 C 295.374 362.374 288.041 367.059 285.036 374.393 L 281.964 381.883 C 281.731 382.45 281.085 382.717 280.518 382.495 C 279.95 382.261 279.683 381.615 279.917 381.048 L 282.988 373.558 C 286.349 365.368 294.54 360.126 303.398 360.515 C 312.947 360.938 321.026 367.771 323.04 377.119 L 324.265 382.806 C 324.398 383.407 324.009 383.997 323.408 384.131 C 323.33 384.153 323.252 384.153 323.174 384.153 L 323.163 384.142 Z" stroke-linecap="round"/>
</g>
		<g transform="matrix(1.0791 0 0 1.0791 -19.0152 147.2056)" id="17824" clip-path="url(#CLIPPATH_59)">
<clipPath id="CLIPPATH_59">
	<rect transform="matrix(1 0 0 1 20.9319 -136.4144)" id="clip0_735_424" x="-251.8155" y="-262.8775" rx="0" ry="0" width="503.631" height="525.755"/>
</clipPath>
<path style="stroke: none; stroke-width: 0; stroke-dasharray: none; stroke-linecap: butt; stroke-dashoffset: 0; stroke-linejoin: miter; stroke-miterlimit: 4; is-custom-font: none; font-file-url: none; fill: rgb(255,182,182); fill-rule: nonzero; opacity: 1;" transform=" translate(-303.8836, -399.2919)" d="M 324.477 402.237 C 324.477 402.237 324.411 402.237 324.377 402.237 L 283.201 398.564 C 282.589 398.509 282.133 397.975 282.188 397.362 C 282.244 396.75 282.778 396.305 283.39 396.35 L 324.566 400.022 C 325.178 400.078 325.635 400.612 325.579 401.224 C 325.523 401.803 325.045 402.237 324.466 402.237 H 324.477 Z" stroke-linecap="round"/>
</g>
		<g transform="matrix(1.0791 0 0 1.0791 0 111.9927)" id="814701">
<radialGradient id="SVGID_8" gradientUnits="userSpaceOnUse" gradientTransform="matrix(0 311.333 -321.514 0 321.514 522.333)" cx="0" cy="0" r="1" fx="0" fy="0">
<stop offset="0%" style="stop-color:rgb(137,120,210);stop-opacity: 0.3"/>
<stop offset="100%" style="stop-color:rgb(28,22,53);stop-opacity: 0"/>
</radialGradient>
<path style="stroke: none; stroke-width: 0; stroke-dasharray: none; stroke-linecap: butt; stroke-dashoffset: 0; stroke-linejoin: miter; stroke-miterlimit: 4; is-custom-font: none; font-file-url: none; fill: url(#SVGID_8); fill-rule: nonzero; opacity: 1;" transform=" translate(-321.5145, -366.6665)" d="M 643.029 522.333 C 643.029 439.762 609.155 360.573 548.859 302.187 C 488.564 243.801 406.785 211 321.514 211 C 236.243 211 154.465 243.801 94.1694 302.187 C 33.8738 360.573 0.0000128755 439.762 0 522.333 L 321.514 522.333 H 643.029 Z" stroke-linecap="round"/>
</g>
</g>
</g>
</svg>