<svg width="340" height="300" viewBox="0 0 340 300" fill="none" xmlns="http://www.w3.org/2000/svg">
<rect x="0.964326" y="0.964326" width="338.071" height="298.071" rx="59.0357" fill="#F6C9C7" stroke="#5B112B" stroke-width="2"/>
<path d="M256.929 248.048H84.0664V294.308H256.929V248.048Z" fill="#F0F0F0"/>
<path d="M180.577 257.608H160.42V294.307H180.577V257.608Z" fill="#F18B89"/>
<path d="M246.846 193.462H94.1406V236.019H246.846V193.462Z" fill="#F0F0F0"/>
<path d="M262.333 196.085H78.6614C77.8116 196.085 77.125 195.465 77.125 194.698C77.125 194.32 77.2966 193.958 77.598 193.697L127.796 150.139V131.167C127.796 130.4 128.487 129.781 129.333 129.781H139.242C140.092 129.781 140.778 130.404 140.778 131.167V138.873L144.571 135.581C157.44 124.414 177.681 124.108 190.956 134.886L263.363 193.663C263.995 194.177 264.045 195.053 263.48 195.624C263.187 195.915 262.772 196.085 262.337 196.085H262.333Z" fill="#ED6361" fill-opacity="0.61"/>
<path d="M134.456 204.256C139.831 204.256 144.193 208.19 144.193 213.046V224.92H124.723V213.046C124.723 208.194 129.081 204.256 134.46 204.256H134.456Z" fill="white"/>
<path d="M170.495 204.41C175.87 204.41 180.232 208.344 180.232 213.2V225.074H160.762V213.2C160.762 208.348 165.12 204.41 170.499 204.41H170.495Z" fill="white"/>
<path d="M206.536 204.566C211.911 204.566 216.273 208.5 216.273 213.357V225.231H196.803V213.357C196.803 208.504 201.161 204.566 206.54 204.566H206.536Z" fill="white"/>
<path d="M220.889 257.145C226.265 257.145 230.627 261.079 230.627 265.935V277.809H211.156V265.935C211.156 261.082 215.514 257.145 220.894 257.145H220.889Z" fill="white"/>
<path d="M124.548 257.145C129.923 257.145 134.285 261.079 134.285 265.935V277.809H114.814V265.935C114.814 261.082 119.172 257.145 124.552 257.145H124.548Z" fill="white"/>
<path d="M282.184 248.77L249.756 235.819C249.58 235.751 249.392 235.713 249.204 235.713H94.6607C94.4849 235.713 94.3091 235.743 94.1458 235.804L58.8508 248.755C58.1517 249.012 57.8168 249.73 58.1014 250.361C58.3108 250.826 58.8131 251.128 59.3657 251.128H68.5254V293.685H67.4998V298H273.501V293.685H271.793V251.128H281.635C282.389 251.128 283 250.576 283 249.896C283 249.408 282.682 248.966 282.188 248.766L282.184 248.77ZM269.055 293.688H71.2549V251.132H269.055V293.688Z" fill="#F18B89"/>
<path d="M146.579 223.224H121.641V226.923H146.579V223.224Z" fill="#CACACA"/>
<path d="M183.135 223.224H158.197V226.923H183.135V223.224Z" fill="#CACACA"/>
<path d="M219.692 223.224H194.754V226.923H219.692V223.224Z" fill="#CACACA"/>
<path d="M233.354 276.571H208.416V280.271H233.354V276.571Z" fill="#CACACA"/>
<path d="M136.676 276.571H111.738V280.271H136.676V276.571Z" fill="#CACACA"/>
<path d="M223.722 276.059C223.722 276.059 223.709 276.041 223.701 276.029L223.529 276.037L223.718 276.059H223.722Z" fill="#3F3D56"/>
<path d="M218.997 270.393C218.724 270.469 218.486 269.876 218.737 270.065C218.737 270.193 218.854 270.299 218.997 270.299C219.218 270.318 219.21 270.099 219.311 270.016C219.486 270.14 219.185 270.416 218.997 270.393Z" fill="white"/>
<path d="M218.501 276.781C218.396 276.793 217.663 274.423 217.617 274.385C217.609 274.359 217.626 274.333 217.651 274.325C217.789 274.276 218.488 276.687 218.551 276.717C218.559 276.744 218.543 276.77 218.517 276.778C218.513 276.778 218.509 276.778 218.501 276.778V276.781Z" fill="white"/>
<path d="M72.0225 34.7297H78.0901L84.4985 50.3644H84.7712L91.1796 34.7297H97.2471V58H92.4749V42.8539H92.2817L86.2596 57.8864H83.01L76.9879 42.7971H76.7947V58H72.0225V34.7297ZM109.163 58.3409C107.368 58.3409 105.823 57.9773 104.528 57.2501C103.24 56.5153 102.248 55.4775 101.551 54.1368C100.854 52.7884 100.505 51.1939 100.505 49.3532C100.505 47.5579 100.854 45.9823 101.551 44.6264C102.248 43.2705 103.228 42.2138 104.494 41.4563C105.766 40.6988 107.258 40.3201 108.97 40.3201C110.122 40.3201 111.194 40.5056 112.186 40.8768C113.186 41.2404 114.057 41.7896 114.799 42.5244C115.549 43.2591 116.132 44.1833 116.549 45.2968C116.966 46.4027 117.174 47.6981 117.174 49.1828V50.5122H102.437V47.5125H112.618C112.618 46.8156 112.466 46.1982 112.163 45.6604C111.86 45.1226 111.44 44.7022 110.902 44.3992C110.372 44.0886 109.754 43.9333 109.05 43.9333C108.315 43.9333 107.664 44.1037 107.096 44.4446C106.535 44.7779 106.096 45.2286 105.777 45.7967C105.459 46.3573 105.296 46.9822 105.289 47.6715V50.5235C105.289 51.3871 105.448 52.1332 105.766 52.7619C106.092 53.3906 106.55 53.8754 107.141 54.2163C107.732 54.5572 108.432 54.7276 109.243 54.7276C109.781 54.7276 110.273 54.6519 110.72 54.5004C111.167 54.3489 111.55 54.1216 111.868 53.8186C112.186 53.5156 112.428 53.1445 112.595 52.7051L117.072 53.0005C116.844 54.0762 116.379 55.0155 115.674 55.8184C114.977 56.6138 114.076 57.2349 112.97 57.6819C111.872 58.1212 110.603 58.3409 109.163 58.3409ZM134.854 45.524L130.423 45.7967C130.347 45.418 130.184 45.0771 129.934 44.7741C129.684 44.4636 129.355 44.2174 128.945 44.0356C128.544 43.8462 128.063 43.7515 127.502 43.7515C126.753 43.7515 126.12 43.9106 125.605 44.2287C125.09 44.5393 124.832 44.9559 124.832 45.4786C124.832 45.8952 124.999 46.2475 125.332 46.5353C125.666 46.8232 126.237 47.0542 127.048 47.2284L130.207 47.8647C131.903 48.2132 133.169 48.7737 134.002 49.5463C134.835 50.319 135.252 51.334 135.252 52.5915C135.252 53.7353 134.915 54.739 134.24 55.6025C133.574 56.4661 132.657 57.1402 131.491 57.625C130.332 58.1023 128.995 58.3409 127.48 58.3409C125.169 58.3409 123.329 57.8599 121.958 56.8978C120.594 55.9282 119.795 54.6102 119.56 52.9437L124.321 52.6937C124.465 53.3982 124.813 53.936 125.366 54.3072C125.919 54.6708 126.628 54.8526 127.491 54.8526C128.339 54.8526 129.021 54.6897 129.536 54.364C130.059 54.0307 130.324 53.6027 130.332 53.0801C130.324 52.6407 130.139 52.2809 129.775 52.0006C129.411 51.7128 128.851 51.4931 128.093 51.3416L125.071 50.7394C123.367 50.3985 122.098 49.8077 121.264 48.9669C120.439 48.126 120.026 47.0542 120.026 45.7513C120.026 44.6302 120.329 43.6644 120.935 42.8539C121.549 42.0434 122.408 41.4184 123.514 40.9791C124.628 40.5397 125.931 40.3201 127.423 40.3201C129.627 40.3201 131.362 40.7859 132.627 41.7176C133.899 42.6494 134.642 43.9182 134.854 45.524ZM153.591 58.3409C151.803 58.3409 150.265 57.9621 148.977 57.2046C147.697 56.4396 146.713 55.3791 146.023 54.0231C145.341 52.6672 145.001 51.1068 145.001 49.3418C145.001 47.5541 145.345 45.9861 146.035 44.6378C146.731 43.2819 147.72 42.2252 149 41.4677C150.28 40.7026 151.803 40.3201 153.568 40.3201C155.09 40.3201 156.424 40.5965 157.567 41.1495C158.711 41.7025 159.616 42.4789 160.283 43.4788C160.95 44.4787 161.317 45.6528 161.385 47.0012H156.818C156.689 46.13 156.348 45.4294 155.795 44.8991C155.25 44.3613 154.534 44.0924 153.647 44.0924C152.897 44.0924 152.242 44.2969 151.682 44.706C151.129 45.1074 150.697 45.6945 150.386 46.4671C150.076 47.2398 149.921 48.1753 149.921 49.2736C149.921 50.3872 150.072 51.334 150.375 52.1143C150.686 52.8945 151.121 53.4891 151.682 53.8982C152.242 54.3072 152.897 54.5117 153.647 54.5117C154.2 54.5117 154.697 54.3981 155.136 54.1709C155.583 53.9436 155.95 53.6141 156.238 53.1823C156.533 52.743 156.727 52.2165 156.818 51.6029H161.385C161.309 52.9361 160.946 54.1103 160.294 55.1253C159.651 56.1328 158.761 56.9206 157.624 57.4887C156.488 58.0568 155.143 58.3409 153.591 58.3409ZM164.484 58V40.5473H169.177V43.5924H169.359C169.677 42.5092 170.211 41.6911 170.961 41.1381C171.711 40.5776 172.574 40.2973 173.552 40.2973C173.794 40.2973 174.055 40.3125 174.336 40.3428C174.616 40.3731 174.862 40.4147 175.074 40.4678V44.7628C174.847 44.6946 174.533 44.634 174.131 44.581C173.73 44.5279 173.362 44.5014 173.029 44.5014C172.317 44.5014 171.681 44.6567 171.12 44.9673C170.567 45.2703 170.128 45.6945 169.802 46.2399C169.484 46.7853 169.325 47.414 169.325 48.126V58H164.484ZM184.718 58.3409C182.923 58.3409 181.377 57.9773 180.082 57.2501C178.794 56.5153 177.802 55.4775 177.105 54.1368C176.408 52.7884 176.06 51.1939 176.06 49.3532C176.06 47.5579 176.408 45.9823 177.105 44.6264C177.802 43.2705 178.783 42.2138 180.048 41.4563C181.321 40.6988 182.813 40.3201 184.525 40.3201C185.676 40.3201 186.748 40.5056 187.74 40.8768C188.74 41.2404 189.611 41.7896 190.354 42.5244C191.104 43.2591 191.687 44.1833 192.104 45.2968C192.52 46.4027 192.728 47.6981 192.728 49.1828V50.5122H177.991V47.5125H188.172C188.172 46.8156 188.021 46.1982 187.718 45.6604C187.415 45.1226 186.994 44.7022 186.456 44.3992C185.926 44.0886 185.309 43.9333 184.604 43.9333C183.87 43.9333 183.218 44.1037 182.65 44.4446C182.089 44.7779 181.65 45.2286 181.332 45.7967C181.014 46.3573 180.851 46.9822 180.843 47.6715V50.5235C180.843 51.3871 181.002 52.1332 181.321 52.7619C181.646 53.3906 182.105 53.8754 182.695 54.2163C183.286 54.5572 183.987 54.7276 184.798 54.7276C185.335 54.7276 185.828 54.6519 186.275 54.5004C186.722 54.3489 187.104 54.1216 187.422 53.8186C187.74 53.5156 187.983 53.1445 188.149 52.7051L192.626 53.0005C192.399 54.0762 191.933 55.0155 191.229 55.8184C190.532 56.6138 189.63 57.2349 188.524 57.6819C187.426 58.1212 186.157 58.3409 184.718 58.3409ZM203.773 58.3409C201.985 58.3409 200.447 57.9621 199.16 57.2046C197.879 56.4396 196.895 55.3791 196.205 54.0231C195.524 52.6672 195.183 51.1068 195.183 49.3418C195.183 47.5541 195.527 45.9861 196.217 44.6378C196.914 43.2819 197.902 42.2252 199.182 41.4677C200.463 40.7026 201.985 40.3201 203.75 40.3201C205.273 40.3201 206.606 40.5965 207.75 41.1495C208.893 41.7025 209.799 42.4789 210.465 43.4788C211.132 44.4787 211.499 45.6528 211.567 47.0012H207C206.871 46.13 206.53 45.4294 205.977 44.8991C205.432 44.3613 204.716 44.0924 203.83 44.0924C203.08 44.0924 202.424 44.2969 201.864 44.706C201.311 45.1074 200.879 45.6945 200.569 46.4671C200.258 47.2398 200.103 48.1753 200.103 49.2736C200.103 50.3872 200.254 51.334 200.557 52.1143C200.868 52.8945 201.303 53.4891 201.864 53.8982C202.424 54.3072 203.08 54.5117 203.83 54.5117C204.383 54.5117 204.879 54.3981 205.318 54.1709C205.765 53.9436 206.132 53.6141 206.42 53.1823C206.716 52.743 206.909 52.2165 207 51.6029H211.567C211.492 52.9361 211.128 54.1103 210.477 55.1253C209.833 56.1328 208.943 56.9206 207.806 57.4887C206.67 58.0568 205.326 58.3409 203.773 58.3409ZM219.507 47.9102V58H214.667V34.7297H219.371V43.6265H219.575C219.969 42.5963 220.605 41.7896 221.484 41.2063C222.363 40.6155 223.465 40.3201 224.79 40.3201C226.002 40.3201 227.059 40.5852 227.961 41.1154C228.87 41.6381 229.574 42.3918 230.074 43.3765C230.582 44.3537 230.831 45.524 230.824 46.8875V58H225.984V47.7511C225.991 46.6754 225.718 45.8384 225.165 45.24C224.62 44.6416 223.855 44.3424 222.87 44.3424C222.211 44.3424 221.628 44.4825 221.12 44.7628C220.62 45.043 220.227 45.4521 219.939 45.9899C219.658 46.5202 219.514 47.1602 219.507 47.9102ZM242.587 58.3409C240.792 58.3409 239.246 57.9773 237.951 57.2501C236.663 56.5153 235.671 55.4775 234.974 54.1368C234.277 52.7884 233.929 51.1939 233.929 49.3532C233.929 47.5579 234.277 45.9823 234.974 44.6264C235.671 43.2705 236.652 42.2138 237.917 41.4563C239.19 40.6988 240.682 40.3201 242.394 40.3201C243.545 40.3201 244.617 40.5056 245.609 40.8768C246.609 41.2404 247.48 41.7896 248.223 42.5244C248.973 43.2591 249.556 44.1833 249.972 45.2968C250.389 46.4027 250.597 47.6981 250.597 49.1828V50.5122H235.86V47.5125H246.041C246.041 46.8156 245.89 46.1982 245.587 45.6604C245.284 45.1226 244.863 44.7022 244.325 44.3992C243.795 44.0886 243.178 43.9333 242.473 43.9333C241.738 43.9333 241.087 44.1037 240.519 44.4446C239.958 44.7779 239.519 45.2286 239.201 45.7967C238.883 46.3573 238.72 46.9822 238.712 47.6715V50.5235C238.712 51.3871 238.871 52.1332 239.19 52.7619C239.515 53.3906 239.974 53.8754 240.564 54.2163C241.155 54.5572 241.856 54.7276 242.666 54.7276C243.204 54.7276 243.697 54.6519 244.144 54.5004C244.59 54.3489 244.973 54.1216 245.291 53.8186C245.609 53.5156 245.852 53.1445 246.018 52.7051L250.495 53.0005C250.268 54.0762 249.802 55.0155 249.098 55.8184C248.401 56.6138 247.499 57.2349 246.393 57.6819C245.295 58.1212 244.026 58.3409 242.587 58.3409ZM268.277 45.524L263.846 45.7967C263.77 45.418 263.607 45.0771 263.357 44.7741C263.107 44.4636 262.778 44.2174 262.369 44.0356C261.967 43.8462 261.486 43.7515 260.926 43.7515C260.176 43.7515 259.543 43.9106 259.028 44.2287C258.513 44.5393 258.256 44.9559 258.256 45.4786C258.256 45.8952 258.422 46.2475 258.756 46.5353C259.089 46.8232 259.661 47.0542 260.471 47.2284L263.63 47.8647C265.327 48.2132 266.592 48.7737 267.425 49.5463C268.258 50.319 268.675 51.334 268.675 52.5915C268.675 53.7353 268.338 54.739 267.664 55.6025C266.997 56.4661 266.081 57.1402 264.914 57.625C263.755 58.1023 262.418 58.3409 260.903 58.3409C258.593 58.3409 256.752 57.8599 255.381 56.8978C254.017 55.9282 253.218 54.6102 252.983 52.9437L257.744 52.6937C257.888 53.3982 258.237 53.936 258.79 54.3072C259.343 54.6708 260.051 54.8526 260.914 54.8526C261.763 54.8526 262.445 54.6897 262.96 54.364C263.482 54.0307 263.748 53.6027 263.755 53.0801C263.748 52.6407 263.562 52.2809 263.198 52.0006C262.835 51.7128 262.274 51.4931 261.517 51.3416L258.494 50.7394C256.79 50.3985 255.521 49.8077 254.688 48.9669C253.862 48.126 253.449 47.0542 253.449 45.7513C253.449 44.6302 253.752 43.6644 254.358 42.8539C254.972 42.0434 255.832 41.4184 256.938 40.9791C258.051 40.5397 259.354 40.3201 260.846 40.3201C263.051 40.3201 264.785 40.7859 266.05 41.7176C267.323 42.6494 268.065 43.9182 268.277 45.524Z" fill="#191A43"/>
</svg>
