<svg width="436" height="569" viewBox="0 0 436 569" fill="none" xmlns="http://www.w3.org/2000/svg">
<g filter="url(#filter0_di_668_374)">
<rect x="14.5" width="421" height="561" rx="25" fill="#FDD2CD"/>
<rect x="16" y="1.5" width="418" height="558" rx="23.5" stroke="#5B112B" stroke-width="3"/>
</g>
<path d="M211.607 149.427C211.607 149.427 212.986 151.128 210.621 154.418C208.255 157.709 210.163 164.852 214.659 165.034C219.155 165.217 221.331 167.242 220.246 169.906C219.161 172.571 217.861 178.913 222.755 177.949C227.65 176.986 229.192 179.081 228.33 180.691C227.467 182.301 230.512 177.485 230.512 177.485C230.512 177.485 233.237 181.858 236.583 178.793C239.928 175.728 241.262 148.006 234.439 147.535C227.617 147.064 211.607 149.42 211.607 149.42V149.427Z" fill="#2F2E41"/>
<path d="M246.188 281.291L247.743 292.996H254.741L252.408 279.617L246.188 281.291Z" fill="#9F616A"/>
<path d="M255.512 285.889C255.512 285.889 264.837 295.085 262.511 295.921C260.184 296.758 251.631 306.79 250.075 307.627C248.684 308.372 233.752 313.483 236.085 307.627C238.418 301.771 243.854 298.431 243.854 298.431L245.41 288.399L255.512 285.889Z" fill="#F2F2F2"/>
<path opacity="0.1" d="M255.512 285.889C255.512 285.889 264.837 295.085 262.511 295.921C260.184 296.758 251.631 306.79 250.075 307.627C248.684 308.372 233.752 313.483 236.085 307.627C238.418 301.771 243.854 298.431 243.854 298.431L245.41 288.399L255.512 285.889Z" fill="black"/>
<path d="M255.514 272.51L257.069 284.215H264.068L261.735 270.836L255.514 272.51Z" fill="#9F616A"/>
<path d="M226.284 241.435L236.471 205.193C236.471 205.193 219.37 188.467 231.028 183.447C242.686 178.427 245.796 203.519 245.796 203.519L241.908 247.003H226.362L226.277 241.428L226.284 241.435Z" fill="#FFB8B8"/>
<path d="M250.075 214.81C250.075 214.81 229.988 242.532 233.033 246.651C236.078 250.771 241.521 275.856 241.521 275.856C241.521 275.856 240.744 285.889 243.854 285.889C246.965 285.889 254.735 284.215 254.735 281.705C254.735 279.196 247.736 247.418 247.736 247.418L267.948 218.986L250.069 214.803L250.075 214.81Z" fill="#5B112B"/>
<path d="M251.632 216.484L271.844 204.778C271.844 204.778 285.834 212.308 281.946 218.994C278.058 225.68 260.179 243.242 260.179 243.242C260.179 243.242 265.623 271.673 264.845 272.51C264.067 273.347 255.52 276.693 253.187 275.856C250.854 275.02 238.419 242.405 241.529 240.732C244.64 239.059 254.743 221.497 254.743 221.497L251.632 216.477V216.484Z" fill="#5B112B"/>
<path d="M196.447 523.386C196.447 523.386 210.438 532.582 211.993 532.582C213.548 532.582 234.531 538.438 225.206 542.615C215.881 546.791 180.124 540.941 180.901 538.431C181.679 535.922 180.901 520.869 182.456 520.869C184.012 520.869 196.447 523.379 196.447 523.379V523.386Z" fill="#2F2E41"/>
<path d="M211.986 535.092C211.986 535.092 225.977 544.288 227.532 544.288C229.087 544.288 250.07 550.144 240.745 554.32C231.42 558.497 195.663 552.647 196.44 550.137C197.218 547.627 196.44 532.575 197.995 532.575C199.551 532.575 211.986 535.085 211.986 535.085V535.092Z" fill="#2F2E41"/>
<path d="M197.217 357.811C197.217 357.811 199.55 370.353 203.438 379.556C207.326 388.759 202.661 432.243 200.328 438.929C197.995 445.615 175.457 525.066 182.449 525.903C189.441 526.74 203.438 525.903 203.438 525.903L225.976 449.805L222.088 347.778L197.217 357.811Z" fill="#575A88"/>
<path opacity="0.1" d="M197.217 357.811C197.217 357.811 199.55 370.353 203.438 379.556C207.326 388.759 202.661 432.243 200.328 438.929C197.995 445.615 175.457 525.066 182.449 525.903C189.441 526.74 203.438 525.903 203.438 525.903L225.976 449.805L222.088 347.778L197.217 357.811Z" fill="black"/>
<path d="M201.883 358.647C201.883 358.647 204.993 381.229 211.985 386.242C218.977 391.255 216.651 396.274 216.651 396.274L213.54 440.595C213.54 440.595 183.226 520.876 192.551 530.908C201.876 540.941 210.43 536.765 214.318 535.928C218.206 535.092 225.198 517.529 221.317 512.51C217.435 507.49 229.086 477.385 232.197 472.372C235.307 467.36 232.197 460.667 236.085 458.993C239.973 457.32 248.52 446.451 248.52 438.921C248.52 431.392 259.4 351.117 252.408 346.098C245.416 341.078 200.569 356.454 200.569 356.454L201.883 358.64V358.647Z" fill="#575A88"/>
<path d="M187.115 241.569C196.559 241.569 204.216 233.331 204.216 223.17C204.216 213.008 196.559 204.771 187.115 204.771C177.67 204.771 170.014 213.008 170.014 223.17C170.014 233.331 177.67 241.569 187.115 241.569Z" fill="#FFB8B8"/>
<path d="M225.977 171.32C233.704 171.32 239.968 164.581 239.968 156.268C239.968 147.954 233.704 141.215 225.977 141.215C218.25 141.215 211.986 147.954 211.986 156.268C211.986 164.581 218.25 171.32 225.977 171.32Z" fill="#9F616A"/>
<path d="M198.772 223.169C198.772 223.169 208.097 241.568 212.763 241.568C217.428 241.568 194.106 260.804 194.106 260.804C194.106 260.804 186.336 236.556 184.781 235.719C183.226 234.882 198.772 223.176 198.772 223.176V223.169Z" fill="#FFB8B8"/>
<path d="M201.883 239.896C201.883 239.896 181.671 247.425 182.449 249.928C183.226 252.431 177.006 258.287 177.006 260.797C177.006 263.307 175.45 285.882 184.775 304.281C194.1 322.68 208.868 336.059 201.876 344.418C194.884 352.777 183.998 367 195.655 367C207.313 367 225.969 348.601 243.071 355.294C260.172 361.987 256.284 336.895 256.284 336.895C256.284 336.895 258.616 317.66 253.951 311.81C249.285 305.961 232.962 264.144 232.962 259.124C232.962 254.104 217.416 234.876 213.528 234.876C209.639 234.876 201.87 239.896 201.87 239.896H201.883Z" fill="#8985A8"/>
<path d="M229.865 165.47C229.865 165.47 236.197 178.42 236.531 180.726C236.864 183.032 247.744 165.47 247.744 165.47L235.309 156.274L229.865 165.47Z" fill="#9F616A"/>
<path d="M232.197 175.502L245.41 160.45L260.956 167.98C260.956 167.98 275.457 202.268 276.365 204.778C277.273 207.287 253.18 218.993 250.847 218.993C248.514 218.993 232.191 193.072 232.191 193.072C232.191 193.072 228.303 180.529 232.191 175.51L232.197 175.502Z" fill="#F2F2F2"/>
<path d="M225.977 195.575V210.627H235.308L232.237 195.575H225.977Z" fill="#9F616A"/>
<path d="M231.302 206.866C228.891 206.831 226.709 208.406 225.826 210.824C225.219 212.589 225.428 214.452 228.31 215.225C234.531 216.898 235.308 215.225 235.308 215.225C235.308 215.225 246.103 213.552 243.816 210.205C241.529 206.859 235.308 206.859 235.308 206.859H231.302V206.866Z" fill="#9F616A"/>
<path d="M264.844 279.203C264.844 279.203 274.169 288.399 271.843 289.235C269.517 290.072 260.963 300.104 259.407 300.941C258.016 301.686 243.084 306.797 245.417 300.941C247.75 295.085 253.186 291.745 253.186 291.745L254.742 281.713L264.844 279.203Z" fill="#F2F2F2"/>
<path d="M181.025 209.01C182.096 208.335 183.358 207.499 183.39 206.163C183.331 205.164 182.73 204.293 181.855 203.948C180.992 203.625 180.077 203.498 179.169 203.561C178.823 203.54 178.47 203.583 178.13 203.674C177.248 203.969 176.731 204.932 176.039 205.593C175.026 206.549 173.634 206.824 172.327 207.189C170.145 207.801 168.053 208.729 166.113 209.959C165.727 210.17 165.394 210.465 165.126 210.831C164.819 211.506 164.682 212.251 164.734 212.996C164.557 215.837 162.976 218.304 161.8 220.849C160.624 223.394 159.846 226.565 161.231 228.984C161.78 229.736 162.296 230.523 162.767 231.332C163.747 233.532 162.525 236.246 163.231 238.559C163.551 239.473 164.061 240.296 164.721 240.957C166.087 242.433 167.766 243.53 169.615 244.149C171.38 244.732 173.575 245.126 174.268 246.968C174.562 247.762 174.503 248.69 174.921 249.414C175.438 250.314 176.509 250.603 177.476 250.792C178.561 251.06 179.679 251.144 180.783 251.052C181.9 250.947 182.933 250.356 183.639 249.407C183.952 248.746 184.338 248.135 184.795 247.572C185.919 246.56 187.631 247.361 189.075 247.094C190.271 246.848 191.225 245.885 191.526 244.62C191.565 243.959 191.735 243.312 192.022 242.728C192.918 241.491 195.283 242.363 195.878 240.929C196.263 240.001 195.46 239.016 194.676 238.433C193.408 237.491 191.983 236.759 190.846 235.642C189.709 234.524 188.866 232.843 189.219 231.226C189.755 228.801 192.696 227.465 192.794 224.976C192.852 223.549 191.898 222.298 190.833 221.447C189.768 220.596 188.533 219.985 187.579 218.993C186.88 218.269 186.357 217.355 185.599 216.708C184.227 215.527 182.351 215.387 180.606 215.197C179.672 215.091 175.934 214.627 176.085 213.095C176.209 211.822 180.084 209.622 181.031 209.024L181.025 209.01Z" fill="#2F2E41"/>
<path d="M232.197 174.666C232.197 174.666 223.65 178.013 223.65 182.196C223.65 186.379 219.762 199.758 223.65 199.758C227.538 199.758 235.308 196.545 235.308 196.545L232.197 174.666Z" fill="#F2F2F2"/>
<path d="M229.865 234.875C229.865 234.875 252.403 226.516 253.181 226.516C253.958 226.516 264.838 219.823 264.061 217.32L260.95 196.411C260.95 196.411 248.515 168.816 257.062 168.816C265.609 168.816 270.275 190.562 270.275 190.562C270.275 190.562 288.931 228.196 278.822 236.555C268.713 244.915 226.748 259.974 224.415 257.464C222.082 254.954 229.858 234.882 229.858 234.882L229.865 234.875Z" fill="#FFB8B8"/>
<path d="M251.631 180.523L256.878 185.964L250.076 193.065C250.076 193.065 240.751 188.882 241.528 191.392C242.306 193.902 246.972 201.424 250.076 201.424C253.18 201.424 269.366 190.555 269.438 187.209C269.51 183.862 259.407 172.156 257.074 171.32C254.742 170.483 251.631 180.516 251.631 180.516V180.523Z" fill="#9F616A"/>
<path d="M241.764 174.694C241.764 174.694 253.186 185.542 254.735 185.542C256.284 185.542 259.12 169.246 259.12 169.246C259.12 169.246 249.906 162.785 246.495 164.549C243.084 166.314 241.764 174.694 241.764 174.694Z" fill="#F2F2F2"/>
<path d="M201.883 244.915C201.883 244.915 201.883 233.209 225.199 233.209H235.302L230.636 260.804L215.09 265.824L201.877 244.915H201.883Z" fill="#8985A8"/>
<path d="M252.82 150.172C250.533 150.158 248.253 150.01 245.985 149.715C244.201 145.082 241.934 141.194 239.477 139.746C237.732 138.065 235.046 136.849 232.935 135.886C227.753 133.517 219.134 134.993 218.631 137.686C208.437 142.923 211.018 152.126 211.018 152.126C212.6 155.726 216.154 154.13 219.167 152.499C219.938 155.107 221.755 157.322 224.355 157.427C229.335 157.631 231.746 159.874 230.544 162.827C229.341 165.78 227.904 172.803 233.321 171.734C238.738 170.666 240.457 172.986 239.496 174.772C238.536 176.557 241.914 171.221 241.914 171.221C241.914 171.221 244.933 176.065 248.638 172.677C249.011 172.29 249.278 171.798 249.409 171.256C251.134 172.058 252.5 172.36 253.271 171.988C257.708 169.85 254.951 164.83 254.951 164.83C254.951 164.83 260.877 163.853 258.969 164.015C257.061 164.177 255.852 161.512 259.08 156.71C262.309 151.908 255.807 150.284 252.807 150.172H252.82Z" fill="#2F2E41"/>
<path d="M220.538 145.608L218.328 152.752L220.542 153.545L222.752 146.401L220.538 145.608Z" fill="#5B112B"/>
<path opacity="0.1" d="M224.5 556.774C325.016 556.774 406.5 548.844 406.5 539.062C406.5 529.28 325.016 521.35 224.5 521.35C123.984 521.35 42.5 529.28 42.5 539.062C42.5 548.844 123.984 556.774 224.5 556.774Z" fill="#191A43"/>
<defs>
<filter id="filter0_di_668_374" x="0.5" y="0" width="439" height="569" filterUnits="userSpaceOnUse" color-interpolation-filters="sRGB">
<feFlood flood-opacity="0" result="BackgroundImageFix"/>
<feColorMatrix in="SourceAlpha" type="matrix" values="0 0 0 0 0 0 0 0 0 0 0 0 0 0 0 0 0 0 127 0" result="hardAlpha"/>
<feOffset dx="-10" dy="4"/>
<feGaussianBlur stdDeviation="2"/>
<feComposite in2="hardAlpha" operator="out"/>
<feColorMatrix type="matrix" values="0 0 0 0 0 0 0 0 0 0 0 0 0 0 0 0 0 0 0.25 0"/>
<feBlend mode="normal" in2="BackgroundImageFix" result="effect1_dropShadow_668_374"/>
<feBlend mode="normal" in="SourceGraphic" in2="effect1_dropShadow_668_374" result="shape"/>
<feColorMatrix in="SourceAlpha" type="matrix" values="0 0 0 0 0 0 0 0 0 0 0 0 0 0 0 0 0 0 127 0" result="hardAlpha"/>
<feOffset dx="10" dy="7"/>
<feGaussianBlur stdDeviation="2"/>
<feComposite in2="hardAlpha" operator="arithmetic" k2="-1" k3="1"/>
<feColorMatrix type="matrix" values="0 0 0 0 0 0 0 0 0 0 0 0 0 0 0 0 0 0 0.25 0"/>
<feBlend mode="normal" in2="shape" result="effect2_innerShadow_668_374"/>
</filter>
</defs>
</svg>
