<svg width="340" height="300" viewBox="0 0 340 300" fill="none" xmlns="http://www.w3.org/2000/svg">
<rect x="0.964326" y="0.964326" width="338.071" height="298.071" rx="59.0357" fill="#F6C9C7" stroke="#5B112B" stroke-width="2"/>
<g clip-path="url(#clip0_448_3946)">
<rect width="247" height="247" transform="translate(46.5 51)" fill="#F6C9C7"/>
<circle cx="170.25" cy="189.25" r="151.25" fill="#F6C9C7"/>
<rect x="74.3359" y="247.766" width="201.667" height="92.7666" rx="46.3833" fill="#FFF8F8"/>
<path d="M228.662 175.473C228.81 207.958 202.596 234.412 170.112 234.561C137.627 234.709 111.173 208.495 111.024 176.01C110.876 143.525 137.09 117.071 169.575 116.923C202.059 116.775 228.514 142.988 228.662 175.473Z" fill="#FFF8F8"/>
</g>
<path d="M79.0225 62.7297H85.0901L91.4985 78.3644H91.7712L98.1796 62.7297H104.247V86H99.4749V70.8539H99.2817L93.2596 85.8864H90.01L83.9879 70.7971H83.7947V86H79.0225V62.7297ZM116.095 86.3409C114.33 86.3409 112.804 85.9659 111.516 85.216C110.236 84.4585 109.248 83.4056 108.551 82.0572C107.854 80.7013 107.505 79.1295 107.505 77.3418C107.505 75.539 107.854 73.9634 108.551 72.6151C109.248 71.2591 110.236 70.2062 111.516 69.4563C112.804 68.6988 114.33 68.3201 116.095 68.3201C117.86 68.3201 119.383 68.6988 120.663 69.4563C121.951 70.2062 122.943 71.2591 123.64 72.6151C124.337 73.9634 124.685 75.539 124.685 77.3418C124.685 79.1295 124.337 80.7013 123.64 82.0572C122.943 83.4056 121.951 84.4585 120.663 85.216C119.383 85.9659 117.86 86.3409 116.095 86.3409ZM116.118 82.5913C116.921 82.5913 117.591 82.364 118.129 81.9095C118.667 81.4475 119.072 80.8187 119.345 80.0234C119.625 79.228 119.765 78.3228 119.765 77.3077C119.765 76.2927 119.625 75.3875 119.345 74.5921C119.072 73.7967 118.667 73.168 118.129 72.706C117.591 72.2439 116.921 72.0128 116.118 72.0128C115.308 72.0128 114.626 72.2439 114.073 72.706C113.527 73.168 113.115 73.7967 112.834 74.5921C112.562 75.3875 112.425 76.2927 112.425 77.3077C112.425 78.3228 112.562 79.228 112.834 80.0234C113.115 80.8187 113.527 81.4475 114.073 81.9095C114.626 82.364 115.308 82.5913 116.118 82.5913ZM132.673 75.9102V86H127.833V68.5473H132.446V71.6265H132.65C133.037 70.6115 133.684 69.8085 134.593 69.2177C135.502 68.6193 136.604 68.3201 137.9 68.3201C139.112 68.3201 140.169 68.5852 141.07 69.1154C141.971 69.6457 142.672 70.4032 143.172 71.3879C143.672 72.3651 143.922 73.5316 143.922 74.8875V86H139.082V75.7511C139.089 74.683 138.816 73.8498 138.263 73.2513C137.71 72.6454 136.949 72.3424 135.98 72.3424C135.328 72.3424 134.752 72.4825 134.252 72.7628C133.76 73.043 133.374 73.4521 133.093 73.9899C132.821 74.5202 132.681 75.1602 132.673 75.9102ZM155.142 92.5448V68.5473H159.915V71.4788H160.13C160.343 71.0092 160.649 70.5319 161.051 70.0471C161.46 69.5548 161.99 69.1457 162.642 68.82C163.301 68.4867 164.119 68.3201 165.096 68.3201C166.368 68.3201 167.543 68.6533 168.618 69.3199C169.694 69.979 170.554 70.9751 171.197 72.3083C171.841 73.6339 172.163 75.2966 172.163 77.2964C172.163 79.2431 171.849 80.8869 171.22 82.2277C170.599 83.5609 169.751 84.5721 168.675 85.2614C167.607 85.9432 166.41 86.2841 165.084 86.2841C164.145 86.2841 163.346 86.1288 162.687 85.8182C162.036 85.5076 161.501 85.1175 161.085 84.6479C160.668 84.1706 160.35 83.6896 160.13 83.2048H159.983V92.5448H155.142ZM159.88 77.2736C159.88 78.3114 160.024 79.2166 160.312 79.9893C160.6 80.7619 161.017 81.3641 161.562 81.7959C162.107 82.2201 162.77 82.4322 163.551 82.4322C164.338 82.4322 165.005 82.2163 165.55 81.7845C166.096 81.3452 166.509 80.7392 166.789 79.9665C167.077 79.1863 167.221 78.2887 167.221 77.2736C167.221 76.2662 167.08 75.3799 166.8 74.6148C166.52 73.8498 166.107 73.2513 165.562 72.8196C165.016 72.3878 164.346 72.1719 163.551 72.1719C162.763 72.1719 162.096 72.3802 161.551 72.7969C161.013 73.2135 160.6 73.8043 160.312 74.5694C160.024 75.3345 159.88 76.2359 159.88 77.2736ZM175.39 86V68.5473H180.083V71.5924H180.265C180.583 70.5092 181.117 69.6911 181.867 69.1381C182.617 68.5776 183.48 68.2973 184.457 68.2973C184.7 68.2973 184.961 68.3125 185.241 68.3428C185.522 68.3731 185.768 68.4147 185.98 68.4678V72.7628C185.753 72.6946 185.438 72.634 185.037 72.581C184.635 72.5279 184.268 72.5014 183.935 72.5014C183.223 72.5014 182.586 72.6567 182.026 72.9673C181.473 73.2703 181.034 73.6945 180.708 74.2399C180.39 74.7853 180.231 75.414 180.231 76.126V86H175.39ZM195.556 86.3409C193.791 86.3409 192.264 85.9659 190.977 85.216C189.696 84.4585 188.708 83.4056 188.011 82.0572C187.314 80.7013 186.966 79.1295 186.966 77.3418C186.966 75.539 187.314 73.9634 188.011 72.6151C188.708 71.2591 189.696 70.2062 190.977 69.4563C192.264 68.6988 193.791 68.3201 195.556 68.3201C197.321 68.3201 198.843 68.6988 200.123 69.4563C201.411 70.2062 202.403 71.2591 203.1 72.6151C203.797 73.9634 204.146 75.539 204.146 77.3418C204.146 79.1295 203.797 80.7013 203.1 82.0572C202.403 83.4056 201.411 84.4585 200.123 85.216C198.843 85.9659 197.321 86.3409 195.556 86.3409ZM195.578 82.5913C196.381 82.5913 197.052 82.364 197.59 81.9095C198.127 81.4475 198.533 80.8187 198.805 80.0234C199.086 79.228 199.226 78.3228 199.226 77.3077C199.226 76.2927 199.086 75.3875 198.805 74.5921C198.533 73.7967 198.127 73.168 197.59 72.706C197.052 72.2439 196.381 72.0128 195.578 72.0128C194.768 72.0128 194.086 72.2439 193.533 72.706C192.988 73.168 192.575 73.7967 192.295 74.5921C192.022 75.3875 191.886 76.2927 191.886 77.3077C191.886 78.3228 192.022 79.228 192.295 80.0234C192.575 80.8187 192.988 81.4475 193.533 81.9095C194.086 82.364 194.768 82.5913 195.578 82.5913ZM216.678 68.5473V72.1833H205.907V68.5473H216.678ZM208.372 86V67.2861C208.372 66.0211 208.619 64.9719 209.111 64.1387C209.611 63.3054 210.293 62.6805 211.156 62.2639C212.02 61.8472 213.001 61.6389 214.099 61.6389C214.841 61.6389 215.519 61.6958 216.133 61.8094C216.754 61.923 217.216 62.0253 217.519 62.1162L216.656 65.7521C216.466 65.6915 216.231 65.6347 215.951 65.5817C215.679 65.5287 215.398 65.5022 215.11 65.5022C214.398 65.5022 213.902 65.6688 213.622 66.0021C213.342 66.3278 213.202 66.7861 213.202 67.377V86H208.372ZM219.635 86V68.5473H224.476V86H219.635ZM222.067 66.2975C221.347 66.2975 220.73 66.0589 220.215 65.5817C219.707 65.0969 219.454 64.5174 219.454 63.8433C219.454 63.1767 219.707 62.6047 220.215 62.1275C220.73 61.6427 221.347 61.4003 222.067 61.4003C222.787 61.4003 223.4 61.6427 223.908 62.1275C224.423 62.6047 224.68 63.1767 224.68 63.8433C224.68 64.5174 224.423 65.0969 223.908 65.5817C223.4 66.0589 222.787 66.2975 222.067 66.2975ZM233.194 62.7297V86H228.353V62.7297H233.194Z" fill="#191A43"/>
<defs>
<clipPath id="clip0_448_3946">
<rect width="247" height="247" fill="white" transform="translate(46.5 51)"/>
</clipPath>
</defs>
</svg>
