<svg width="436" height="569" viewBox="0 0 436 569" fill="none" xmlns="http://www.w3.org/2000/svg">
<g filter="url(#filter0_di_668_373)">
<rect x="14.5" width="421" height="561" rx="25" fill="#FDD2CD"/>
<rect x="16" y="1.5" width="418" height="558" rx="23.5" stroke="#5B112B" stroke-width="3"/>
</g>
<path d="M234.392 355.827C230 360.28 224.294 361.459 221.659 358.448C219.024 355.437 220.455 349.387 224.847 344.934C226.767 342.986 228.94 341.66 231.005 341.047L249.85 322.418L257.783 332.122L238.367 349.455C237.67 351.628 236.321 353.888 234.392 355.837V355.827Z" fill="#FFB6B6"/>
<path d="M333.526 547.505H324.443L320.123 509.809H333.526V547.505Z" fill="#FFB6B6"/>
<path d="M302.402 547.281C302.121 547.797 301.967 549.444 301.967 550.048C301.967 551.88 303.343 553.361 305.046 553.361H333.174C334.333 553.361 335.275 552.347 335.275 551.1V549.843C335.275 549.843 336.669 546.053 333.799 541.386C333.799 541.386 330.24 545.04 324.915 539.321L323.348 536.261L311.992 545.196L305.698 546.034C304.321 546.219 303.099 546.005 302.392 547.291L302.402 547.281Z" fill="#2F2E41"/>
<path d="M397.255 541.951L388.326 543.734L377.676 507.519L390.861 504.888L397.255 541.951Z" fill="#FFB6B6"/>
<path d="M366.619 547.847C366.429 548.402 366.565 550.058 366.664 550.643C366.972 552.445 368.584 553.634 370.26 553.303L397.916 547.778C399.057 547.554 399.809 546.366 399.601 545.138L399.384 543.901C399.384 543.901 400.108 539.906 396.504 535.882C396.504 535.882 393.624 540.179 387.421 535.59L385.356 532.891L375.702 543.91L369.653 545.966C368.331 546.414 367.09 546.453 366.61 547.847H366.619Z" fill="#2F2E41"/>
<path d="M374.995 361.206L397.372 522.378L376.544 525.301L340.32 397.665L335.792 529.198H316.376C316.376 529.198 299.604 384.025 304.567 366.487C309.529 348.949 374.995 361.206 374.995 361.206Z" fill="#2F2E41"/>
<path d="M326.736 232.041H348.471L351.64 240.322C351.64 240.322 364.319 248.117 364.319 251.04C364.319 253.963 372.016 327.524 372.016 327.524L376.091 367.958C376.091 367.958 328.547 393.778 305.002 367.471L309.53 322.652C309.53 322.652 305.908 252.501 307.719 249.578C309.53 246.656 323.114 239.835 323.114 239.835L326.736 232.041Z" fill="#5B112B"/>
<path d="M319.935 244.609C319.935 244.609 326.555 255.375 324.472 259.808C322.389 264.242 289.77 306.751 289.77 306.751L250.412 341.622L238.875 330.612L275.941 292.565L299.894 254.567C303.707 246.743 311.93 242.66 319.935 244.609Z" fill="#5B112B"/>
<path d="M394.675 384.579C395.617 391 393.307 396.719 389.513 397.372C385.718 398.024 381.879 393.348 380.928 386.927C380.511 384.121 380.719 381.442 381.408 379.269L377.713 352.027L389.631 350.439L392.003 377.466C393.28 379.308 394.249 381.783 394.666 384.589L394.675 384.579Z" fill="#FFB6B6"/>
<path d="M348.316 245.671C348.316 245.671 367.053 241.159 370.458 252.335C373.863 263.52 394.321 369.584 394.321 369.584L378.735 371.445L367.035 298.781L348.316 245.671Z" fill="#5B112B"/>
<path d="M338.345 226.614C348.663 226.614 357.027 217.614 357.027 206.513C357.027 195.412 348.663 186.413 338.345 186.413C328.027 186.413 319.662 195.412 319.662 206.513C319.662 217.614 328.027 226.614 338.345 226.614Z" fill="#FFB6B6"/>
<path d="M349.277 223.583C348.081 223.642 346.496 223.398 346.297 222.132C346.152 221.235 346.859 220.456 347.52 219.891C348.444 219.101 349.422 218.361 350.209 217.426C350.997 216.49 351.613 215.302 351.631 214.025C351.649 212.749 350.943 211.434 349.811 211.063C348.679 210.693 347.275 211.599 347.257 212.866C346.17 211.093 346.026 208.852 345.971 206.718C345.935 205.471 345.926 204.224 345.926 202.976C345.926 201.271 345.971 199.576 346.007 197.871C345.229 197.822 338.953 200.365 338.047 200.365C337.268 200.365 331.011 199.03 331.427 197.111C331.301 198.339 325.333 200.541 325.215 199.907C325.097 199.274 324.644 198.592 324.038 198.631C323.395 198.67 323.051 199.44 322.833 200.083C322.353 201.534 321.185 204.048 319.935 203.298C310.463 197.618 318.097 195.854 319.22 193.545C320.596 190.71 322.073 187.758 324.527 185.945C326.981 184.133 328.919 181.97 330.857 184.406C335.711 180.606 340.52 181.522 346.17 183.685C351.821 185.858 356.349 191.158 357.871 197.413C358.568 200.278 360.434 201.534 359.039 204.087C360.569 206.299 359.736 205.042 360.044 207.78C360.28 209.943 360.08 212.223 359.084 214.113C358.025 216.14 356.141 217.543 354.131 218.38C352.12 219.218 351.767 223.457 349.63 223.788" fill="#2F2E41"/>
<path d="M262.225 484.27H63.4688V547.663H262.225V484.27Z" fill="#F0F0F0"/>
<path d="M175.677 497.043H152.5V547.333H175.677V497.043Z" fill="#5B112B"/>
<path d="M250.634 409.47H75.0547V467.787H250.634V409.47Z" fill="#F0F0F0"/>
<path d="M268.439 413.067H57.2548C56.2777 413.067 55.4883 412.218 55.4883 411.167C55.4883 410.649 55.6856 410.152 56.0322 409.794L113.75 350.105V324.108C113.75 323.056 114.544 322.207 115.517 322.207H126.91C127.887 322.207 128.676 323.061 128.676 324.108V334.667L133.037 330.156C147.834 314.853 171.107 314.434 186.37 329.203L269.623 409.748C270.35 410.452 270.408 411.653 269.758 412.435C269.421 412.834 268.945 413.067 268.444 413.067H268.439Z" fill="#5B112B"/>
<path d="M121.41 424.259C127.59 424.259 132.606 429.65 132.606 436.305V452.576H110.219V436.305C110.219 429.656 115.23 424.259 121.415 424.259H121.41Z" fill="white"/>
<path d="M205.691 421.731C211.872 421.731 216.887 427.122 216.887 433.777V450.048H194.5V433.777C194.5 427.127 199.511 421.731 205.696 421.731H205.691Z" fill="white"/>
<path d="M220.787 496.735C226.967 496.735 231.983 502.126 231.983 508.781V525.052H209.596V508.781C209.596 502.131 214.606 496.735 220.792 496.735H220.787Z" fill="white"/>
<path d="M110.015 496.735C116.196 496.735 121.211 502.126 121.211 508.781V525.052H98.8242V508.781C98.8242 502.131 103.835 496.735 110.02 496.735H110.015Z" fill="white"/>
<path d="M291.265 485.26L253.98 467.512C253.778 467.419 253.561 467.367 253.345 467.367H75.6523C75.4501 467.367 75.248 467.409 75.0603 467.491L34.4782 485.239C33.6744 485.591 33.2893 486.575 33.6166 487.44C33.8573 488.077 34.4349 488.491 35.0703 488.491H45.5973V546.808H44.418V552.722H281.277V546.808H279.313V488.491H290.63C291.496 488.491 292.199 487.735 292.199 486.803C292.199 486.135 291.833 485.529 291.265 485.254V485.26ZM276.17 546.813H48.7404V488.496H276.17V546.813Z" fill="#3F3D56"/>
<path d="M135.353 450.251H106.68V455.321H135.353V450.251Z" fill="#CACACA"/>
<path d="M219.41 450.251H190.736V455.321H219.41V450.251Z" fill="#CACACA"/>
<path d="M235.121 523.359H206.447V528.429H235.121V523.359Z" fill="#CACACA"/>
<path d="M123.959 523.359H95.2852V528.429H123.959V523.359Z" fill="#CACACA"/>
<path d="M227.145 400.826C222.871 370.256 196.373 349.199 167.959 353.793C145.375 357.449 127.642 376.522 124.244 400.826C124.196 401.168 124.148 401.515 124.104 401.861C123.945 403.104 123.825 404.352 123.748 405.606H227.564C227.487 404.005 227.347 402.41 227.145 400.826Z" fill="#5B112B"/>
<path d="M179.064 458.506H149.25V432.846C149.799 421.121 159.118 420.174 167.868 420.8C174.049 420.8 179.064 426.191 179.064 432.841V458.501V458.506Z" fill="#5B112B"/>
<defs>
<filter id="filter0_di_668_373" x="0.5" y="0" width="439" height="569" filterUnits="userSpaceOnUse" color-interpolation-filters="sRGB">
<feFlood flood-opacity="0" result="BackgroundImageFix"/>
<feColorMatrix in="SourceAlpha" type="matrix" values="0 0 0 0 0 0 0 0 0 0 0 0 0 0 0 0 0 0 127 0" result="hardAlpha"/>
<feOffset dx="-10" dy="4"/>
<feGaussianBlur stdDeviation="2"/>
<feComposite in2="hardAlpha" operator="out"/>
<feColorMatrix type="matrix" values="0 0 0 0 0 0 0 0 0 0 0 0 0 0 0 0 0 0 0.25 0"/>
<feBlend mode="normal" in2="BackgroundImageFix" result="effect1_dropShadow_668_373"/>
<feBlend mode="normal" in="SourceGraphic" in2="effect1_dropShadow_668_373" result="shape"/>
<feColorMatrix in="SourceAlpha" type="matrix" values="0 0 0 0 0 0 0 0 0 0 0 0 0 0 0 0 0 0 127 0" result="hardAlpha"/>
<feOffset dx="10" dy="7"/>
<feGaussianBlur stdDeviation="2"/>
<feComposite in2="hardAlpha" operator="arithmetic" k2="-1" k3="1"/>
<feColorMatrix type="matrix" values="0 0 0 0 0 0 0 0 0 0 0 0 0 0 0 0 0 0 0.25 0"/>
<feBlend mode="normal" in2="shape" result="effect2_innerShadow_668_373"/>
</filter>
</defs>
</svg>
